M48
;DRILL file {KiCad (5.0.0-rc2-dev-668-g07e7340a9)} date 04/05/19 10:17:27
;FORMAT={-:-/ absolute / inch / decimal}
FMAT,2
INCH,TZ
T1C0.0157
T2C0.0315
T3C0.0394
T4C0.0472
T5C0.0709
%
G90
G05
M72
T1
X5.9459Y-4.0106
X6.0999Y-4.0158
X6.1142Y-3.7638
X6.1811Y-3.7008
X6.2204Y-3.7022
X6.2825Y-3.5984
T2
X4.7215Y-4.5641
X4.8215Y-4.5641
X4.9215Y-4.5641
X5.0215Y-4.5641
X5.0813Y-2.6641
X5.1215Y-4.5641
X5.1813Y-2.6641
X5.2215Y-4.5641
X5.2813Y-2.6641
X5.3215Y-4.5641
X5.3813Y-2.6641
X5.4215Y-4.5641
X5.4813Y-2.6641
X5.5215Y-4.5641
X5.5813Y-2.6641
X5.6215Y-4.5641
X5.6813Y-2.6641
X5.7813Y-2.6641
X5.7813Y-4.5641
X5.8813Y-4.5641
X5.9813Y-2.6641
X5.9813Y-4.5641
X6.0813Y-2.6641
X6.0813Y-4.5641
X6.1813Y-2.6641
X6.1813Y-4.5641
X6.2813Y-2.6641
X6.2813Y-4.5641
X6.3813Y-2.6641
X6.3813Y-4.5641
X6.4813Y-2.6641
X6.4813Y-4.5641
T3
X5.4016Y-4.2126
X5.5492Y-4.2126
X5.6969Y-4.2126
X5.4016Y-3.4252
X5.5492Y-3.4252
X5.6969Y-3.4252
X5.0827Y-2.7717
X5.1827Y-2.7717
X5.2827Y-2.7717
X5.3827Y-2.7717
X5.4827Y-2.7717
X5.5827Y-2.7717
X5.6827Y-2.7717
X5.7827Y-2.7717
X6.5827Y-3.5433
X6.5827Y-3.6433
X6.5827Y-3.7433
X5.9803Y-2.7717
X6.0803Y-2.7717
X6.1803Y-2.7717
X6.2803Y-2.7717
X6.3803Y-2.7717
X6.4803Y-2.7717
X4.7323Y-3.4252
X4.8799Y-3.4252
X5.0276Y-3.4252
X4.7323Y-4.2126
X4.8799Y-4.2126
X5.0276Y-4.2126
X5.7835Y-4.4488
X5.8835Y-4.4488
X5.9835Y-4.4488
X6.0835Y-4.4488
X6.1835Y-4.4488
X6.2835Y-4.4488
X6.3835Y-4.4488
X6.4835Y-4.4488
X6.0709Y-3.4252
X6.2185Y-3.4252
X6.3661Y-3.4252
X4.7205Y-4.4488
X4.8205Y-4.4488
X4.9205Y-4.4488
X5.0205Y-4.4488
X5.1205Y-4.4488
X5.2205Y-4.4488
X5.3205Y-4.4488
X5.4205Y-4.4488
X5.5205Y-4.4488
X5.6205Y-4.4488
T4
X4.1024Y-3.2087
X4.1024Y-3.3465
X6.4134Y-4.126
X6.4134Y-4.2638
T5
X4.6752Y-3.0778G85X4.6752Y-3.1171
G05
X5.0846Y-3.0778G85X5.0846Y-3.1171
G05
X4.6752Y-3.8652G85X4.6752Y-3.9045
G05
X5.0846Y-3.8652G85X5.0846Y-3.9045
G05
X6.0138Y-3.0778G85X6.0138Y-3.1171
G05
X6.4232Y-3.0778G85X6.4232Y-3.1171
G05
X5.3445Y-3.8652G85X5.3445Y-3.9045
G05
X5.7539Y-3.8652G85X5.7539Y-3.9045
G05
X5.3445Y-3.0778G85X5.3445Y-3.1171
G05
X5.7539Y-3.0778G85X5.7539Y-3.1171
G05
T0
M30
