G04 #@! TF.GenerationSoftware,KiCad,Pcbnew,(5.0.0-rc2-dev-668-g07e7340a9)*
G04 #@! TF.CreationDate,2019-04-05T10:17:21-04:00*
G04 #@! TF.ProjectId,MagLev,4D61674C65762E6B696361645F706362,rev?*
G04 #@! TF.SameCoordinates,Original*
G04 #@! TF.FileFunction,Legend,Top*
G04 #@! TF.FilePolarity,Positive*
%FSLAX46Y46*%
G04 Gerber Fmt 4.6, Leading zero omitted, Abs format (unit mm)*
G04 Created by KiCad (PCBNEW (5.0.0-rc2-dev-668-g07e7340a9)) date 04/05/19 10:17:21*
%MOMM*%
%LPD*%
G01*
G04 APERTURE LIST*
%ADD10C,0.300000*%
%ADD11C,0.200000*%
%ADD12C,0.120000*%
%ADD13C,0.100000*%
%ADD14C,0.150000*%
G04 APERTURE END LIST*
D10*
X103503571Y-117035714D02*
X102003571Y-117035714D01*
X103075000Y-116535714D01*
X102003571Y-116035714D01*
X103503571Y-116035714D01*
X103503571Y-114678571D02*
X102717857Y-114678571D01*
X102575000Y-114750000D01*
X102503571Y-114892857D01*
X102503571Y-115178571D01*
X102575000Y-115321428D01*
X103432142Y-114678571D02*
X103503571Y-114821428D01*
X103503571Y-115178571D01*
X103432142Y-115321428D01*
X103289285Y-115392857D01*
X103146428Y-115392857D01*
X103003571Y-115321428D01*
X102932142Y-115178571D01*
X102932142Y-114821428D01*
X102860714Y-114678571D01*
X102503571Y-113321428D02*
X103717857Y-113321428D01*
X103860714Y-113392857D01*
X103932142Y-113464285D01*
X104003571Y-113607142D01*
X104003571Y-113821428D01*
X103932142Y-113964285D01*
X103432142Y-113321428D02*
X103503571Y-113464285D01*
X103503571Y-113750000D01*
X103432142Y-113892857D01*
X103360714Y-113964285D01*
X103217857Y-114035714D01*
X102789285Y-114035714D01*
X102646428Y-113964285D01*
X102575000Y-113892857D01*
X102503571Y-113750000D01*
X102503571Y-113464285D01*
X102575000Y-113321428D01*
X103503571Y-111892857D02*
X103503571Y-112607142D01*
X102003571Y-112607142D01*
X103432142Y-110821428D02*
X103503571Y-110964285D01*
X103503571Y-111250000D01*
X103432142Y-111392857D01*
X103289285Y-111464285D01*
X102717857Y-111464285D01*
X102575000Y-111392857D01*
X102503571Y-111250000D01*
X102503571Y-110964285D01*
X102575000Y-110821428D01*
X102717857Y-110750000D01*
X102860714Y-110750000D01*
X103003571Y-111464285D01*
X102503571Y-110250000D02*
X103503571Y-109892857D01*
X102503571Y-109535714D01*
X103432142Y-107892857D02*
X103503571Y-107678571D01*
X103503571Y-107321428D01*
X103432142Y-107178571D01*
X103360714Y-107107142D01*
X103217857Y-107035714D01*
X103075000Y-107035714D01*
X102932142Y-107107142D01*
X102860714Y-107178571D01*
X102789285Y-107321428D01*
X102717857Y-107607142D01*
X102646428Y-107750000D01*
X102575000Y-107821428D01*
X102432142Y-107892857D01*
X102289285Y-107892857D01*
X102146428Y-107821428D01*
X102075000Y-107750000D01*
X102003571Y-107607142D01*
X102003571Y-107250000D01*
X102075000Y-107035714D01*
X103503571Y-106392857D02*
X102003571Y-106392857D01*
X103503571Y-105750000D02*
X102717857Y-105750000D01*
X102575000Y-105821428D01*
X102503571Y-105964285D01*
X102503571Y-106178571D01*
X102575000Y-106321428D01*
X102646428Y-106392857D01*
X103503571Y-105035714D02*
X102503571Y-105035714D01*
X102003571Y-105035714D02*
X102075000Y-105107142D01*
X102146428Y-105035714D01*
X102075000Y-104964285D01*
X102003571Y-105035714D01*
X102146428Y-105035714D01*
X103432142Y-103750000D02*
X103503571Y-103892857D01*
X103503571Y-104178571D01*
X103432142Y-104321428D01*
X103289285Y-104392857D01*
X102717857Y-104392857D01*
X102575000Y-104321428D01*
X102503571Y-104178571D01*
X102503571Y-103892857D01*
X102575000Y-103750000D01*
X102717857Y-103678571D01*
X102860714Y-103678571D01*
X103003571Y-104392857D01*
X103503571Y-102821428D02*
X103432142Y-102964285D01*
X103289285Y-103035714D01*
X102003571Y-103035714D01*
X103503571Y-101607142D02*
X102003571Y-101607142D01*
X103432142Y-101607142D02*
X103503571Y-101750000D01*
X103503571Y-102035714D01*
X103432142Y-102178571D01*
X103360714Y-102250000D01*
X103217857Y-102321428D01*
X102789285Y-102321428D01*
X102646428Y-102250000D01*
X102575000Y-102178571D01*
X102503571Y-102035714D01*
X102503571Y-101750000D01*
X102575000Y-101607142D01*
X103503571Y-98892857D02*
X102789285Y-99392857D01*
X103503571Y-99750000D02*
X102003571Y-99750000D01*
X102003571Y-99178571D01*
X102075000Y-99035714D01*
X102146428Y-98964285D01*
X102289285Y-98892857D01*
X102503571Y-98892857D01*
X102646428Y-98964285D01*
X102717857Y-99035714D01*
X102789285Y-99178571D01*
X102789285Y-99750000D01*
X103432142Y-97678571D02*
X103503571Y-97821428D01*
X103503571Y-98107142D01*
X103432142Y-98250000D01*
X103289285Y-98321428D01*
X102717857Y-98321428D01*
X102575000Y-98250000D01*
X102503571Y-98107142D01*
X102503571Y-97821428D01*
X102575000Y-97678571D01*
X102717857Y-97607142D01*
X102860714Y-97607142D01*
X103003571Y-98321428D01*
X102503571Y-97107142D02*
X103503571Y-96750000D01*
X102503571Y-96392857D01*
X103503571Y-93892857D02*
X103503571Y-94750000D01*
X103503571Y-94321428D02*
X102003571Y-94321428D01*
X102217857Y-94464285D01*
X102360714Y-94607142D01*
X102432142Y-94750000D01*
X106053571Y-117500000D02*
X104553571Y-117500000D01*
X105625000Y-117000000D01*
X104553571Y-116500000D01*
X106053571Y-116500000D01*
X106053571Y-115142857D02*
X105267857Y-115142857D01*
X105125000Y-115214285D01*
X105053571Y-115357142D01*
X105053571Y-115642857D01*
X105125000Y-115785714D01*
X105982142Y-115142857D02*
X106053571Y-115285714D01*
X106053571Y-115642857D01*
X105982142Y-115785714D01*
X105839285Y-115857142D01*
X105696428Y-115857142D01*
X105553571Y-115785714D01*
X105482142Y-115642857D01*
X105482142Y-115285714D01*
X105410714Y-115142857D01*
X106053571Y-114571428D02*
X105053571Y-113785714D01*
X105053571Y-114571428D02*
X106053571Y-113785714D01*
X106053571Y-113214285D02*
X105053571Y-113214285D01*
X104553571Y-113214285D02*
X104625000Y-113285714D01*
X104696428Y-113214285D01*
X104625000Y-113142857D01*
X104553571Y-113214285D01*
X104696428Y-113214285D01*
X106053571Y-112500000D02*
X105053571Y-112500000D01*
X105196428Y-112500000D02*
X105125000Y-112428571D01*
X105053571Y-112285714D01*
X105053571Y-112071428D01*
X105125000Y-111928571D01*
X105267857Y-111857142D01*
X106053571Y-111857142D01*
X105267857Y-111857142D02*
X105125000Y-111785714D01*
X105053571Y-111642857D01*
X105053571Y-111428571D01*
X105125000Y-111285714D01*
X105267857Y-111214285D01*
X106053571Y-111214285D01*
X106053571Y-110500000D02*
X105053571Y-110500000D01*
X104553571Y-110500000D02*
X104625000Y-110571428D01*
X104696428Y-110500000D01*
X104625000Y-110428571D01*
X104553571Y-110500000D01*
X104696428Y-110500000D01*
X106053571Y-109571428D02*
X105982142Y-109714285D01*
X105839285Y-109785714D01*
X104553571Y-109785714D01*
X106053571Y-109000000D02*
X105053571Y-109000000D01*
X104553571Y-109000000D02*
X104625000Y-109071428D01*
X104696428Y-109000000D01*
X104625000Y-108928571D01*
X104553571Y-109000000D01*
X104696428Y-109000000D01*
X106053571Y-107642857D02*
X105267857Y-107642857D01*
X105125000Y-107714285D01*
X105053571Y-107857142D01*
X105053571Y-108142857D01*
X105125000Y-108285714D01*
X105982142Y-107642857D02*
X106053571Y-107785714D01*
X106053571Y-108142857D01*
X105982142Y-108285714D01*
X105839285Y-108357142D01*
X105696428Y-108357142D01*
X105553571Y-108285714D01*
X105482142Y-108142857D01*
X105482142Y-107785714D01*
X105410714Y-107642857D01*
X105053571Y-106928571D02*
X106053571Y-106928571D01*
X105196428Y-106928571D02*
X105125000Y-106857142D01*
X105053571Y-106714285D01*
X105053571Y-106500000D01*
X105125000Y-106357142D01*
X105267857Y-106285714D01*
X106053571Y-106285714D01*
X105982142Y-104500000D02*
X106053571Y-104285714D01*
X106053571Y-103928571D01*
X105982142Y-103785714D01*
X105910714Y-103714285D01*
X105767857Y-103642857D01*
X105625000Y-103642857D01*
X105482142Y-103714285D01*
X105410714Y-103785714D01*
X105339285Y-103928571D01*
X105267857Y-104214285D01*
X105196428Y-104357142D01*
X105125000Y-104428571D01*
X104982142Y-104500000D01*
X104839285Y-104500000D01*
X104696428Y-104428571D01*
X104625000Y-104357142D01*
X104553571Y-104214285D01*
X104553571Y-103857142D01*
X104625000Y-103642857D01*
X105982142Y-102357142D02*
X106053571Y-102500000D01*
X106053571Y-102785714D01*
X105982142Y-102928571D01*
X105910714Y-103000000D01*
X105767857Y-103071428D01*
X105339285Y-103071428D01*
X105196428Y-103000000D01*
X105125000Y-102928571D01*
X105053571Y-102785714D01*
X105053571Y-102500000D01*
X105125000Y-102357142D01*
X106053571Y-101714285D02*
X104553571Y-101714285D01*
X106053571Y-101071428D02*
X105267857Y-101071428D01*
X105125000Y-101142857D01*
X105053571Y-101285714D01*
X105053571Y-101500000D01*
X105125000Y-101642857D01*
X105196428Y-101714285D01*
X106053571Y-100142857D02*
X105982142Y-100285714D01*
X105910714Y-100357142D01*
X105767857Y-100428571D01*
X105339285Y-100428571D01*
X105196428Y-100357142D01*
X105125000Y-100285714D01*
X105053571Y-100142857D01*
X105053571Y-99928571D01*
X105125000Y-99785714D01*
X105196428Y-99714285D01*
X105339285Y-99642857D01*
X105767857Y-99642857D01*
X105910714Y-99714285D01*
X105982142Y-99785714D01*
X106053571Y-99928571D01*
X106053571Y-100142857D01*
X106053571Y-99000000D02*
X105053571Y-99000000D01*
X105196428Y-99000000D02*
X105125000Y-98928571D01*
X105053571Y-98785714D01*
X105053571Y-98571428D01*
X105125000Y-98428571D01*
X105267857Y-98357142D01*
X106053571Y-98357142D01*
X105267857Y-98357142D02*
X105125000Y-98285714D01*
X105053571Y-98142857D01*
X105053571Y-97928571D01*
X105125000Y-97785714D01*
X105267857Y-97714285D01*
X106053571Y-97714285D01*
X106053571Y-97000000D02*
X105053571Y-97000000D01*
X105196428Y-97000000D02*
X105125000Y-96928571D01*
X105053571Y-96785714D01*
X105053571Y-96571428D01*
X105125000Y-96428571D01*
X105267857Y-96357142D01*
X106053571Y-96357142D01*
X105267857Y-96357142D02*
X105125000Y-96285714D01*
X105053571Y-96142857D01*
X105053571Y-95928571D01*
X105125000Y-95785714D01*
X105267857Y-95714285D01*
X106053571Y-95714285D01*
X105982142Y-94428571D02*
X106053571Y-94571428D01*
X106053571Y-94857142D01*
X105982142Y-95000000D01*
X105839285Y-95071428D01*
X105267857Y-95071428D01*
X105125000Y-95000000D01*
X105053571Y-94857142D01*
X105053571Y-94571428D01*
X105125000Y-94428571D01*
X105267857Y-94357142D01*
X105410714Y-94357142D01*
X105553571Y-95071428D01*
X106053571Y-93714285D02*
X105053571Y-93714285D01*
X105339285Y-93714285D02*
X105196428Y-93642857D01*
X105125000Y-93571428D01*
X105053571Y-93428571D01*
X105053571Y-93285714D01*
D11*
X128428571Y-65438095D02*
X128428571Y-66238095D01*
X127971428Y-65438095D01*
X127971428Y-66238095D01*
X127133333Y-65514285D02*
X127171428Y-65476190D01*
X127285714Y-65438095D01*
X127361904Y-65438095D01*
X127476190Y-65476190D01*
X127552380Y-65552380D01*
X127590476Y-65628571D01*
X127628571Y-65780952D01*
X127628571Y-65895238D01*
X127590476Y-66047619D01*
X127552380Y-66123809D01*
X127476190Y-66200000D01*
X127361904Y-66238095D01*
X127285714Y-66238095D01*
X127171428Y-66200000D01*
X127133333Y-66161904D01*
X132523809Y-65438095D02*
X132523809Y-66238095D01*
X131990476Y-66238095D02*
X131838095Y-66238095D01*
X131761904Y-66200000D01*
X131685714Y-66123809D01*
X131647619Y-65971428D01*
X131647619Y-65704761D01*
X131685714Y-65552380D01*
X131761904Y-65476190D01*
X131838095Y-65438095D01*
X131990476Y-65438095D01*
X132066666Y-65476190D01*
X132142857Y-65552380D01*
X132180952Y-65704761D01*
X132180952Y-65971428D01*
X132142857Y-66123809D01*
X132066666Y-66200000D01*
X131990476Y-66238095D01*
X130847619Y-65438095D02*
X131114285Y-65819047D01*
X131304761Y-65438095D02*
X131304761Y-66238095D01*
X131000000Y-66238095D01*
X130923809Y-66200000D01*
X130885714Y-66161904D01*
X130847619Y-66085714D01*
X130847619Y-65971428D01*
X130885714Y-65895238D01*
X130923809Y-65857142D01*
X131000000Y-65819047D01*
X131304761Y-65819047D01*
X130504761Y-65857142D02*
X130238095Y-65857142D01*
X130123809Y-65438095D02*
X130504761Y-65438095D01*
X130504761Y-66238095D01*
X130123809Y-66238095D01*
X129514285Y-65857142D02*
X129780952Y-65857142D01*
X129780952Y-65438095D02*
X129780952Y-66238095D01*
X129400000Y-66238095D01*
X134538095Y-65438095D02*
X134804761Y-65819047D01*
X134995238Y-65438095D02*
X134995238Y-66238095D01*
X134690476Y-66238095D01*
X134614285Y-66200000D01*
X134576190Y-66161904D01*
X134538095Y-66085714D01*
X134538095Y-65971428D01*
X134576190Y-65895238D01*
X134614285Y-65857142D01*
X134690476Y-65819047D01*
X134995238Y-65819047D01*
X134233333Y-65476190D02*
X134119047Y-65438095D01*
X133928571Y-65438095D01*
X133852380Y-65476190D01*
X133814285Y-65514285D01*
X133776190Y-65590476D01*
X133776190Y-65666666D01*
X133814285Y-65742857D01*
X133852380Y-65780952D01*
X133928571Y-65819047D01*
X134080952Y-65857142D01*
X134157142Y-65895238D01*
X134195238Y-65933333D01*
X134233333Y-66009523D01*
X134233333Y-66085714D01*
X134195238Y-66161904D01*
X134157142Y-66200000D01*
X134080952Y-66238095D01*
X133890476Y-66238095D01*
X133776190Y-66200000D01*
X133547619Y-66238095D02*
X133090476Y-66238095D01*
X133319047Y-65438095D02*
X133319047Y-66238095D01*
X137590476Y-66238095D02*
X137095238Y-66238095D01*
X137361904Y-65933333D01*
X137247619Y-65933333D01*
X137171428Y-65895238D01*
X137133333Y-65857142D01*
X137095238Y-65780952D01*
X137095238Y-65590476D01*
X137133333Y-65514285D01*
X137171428Y-65476190D01*
X137247619Y-65438095D01*
X137476190Y-65438095D01*
X137552380Y-65476190D01*
X137590476Y-65514285D01*
X136866666Y-66238095D02*
X136600000Y-65438095D01*
X136333333Y-66238095D01*
X136142857Y-66238095D02*
X135647619Y-66238095D01*
X135914285Y-65933333D01*
X135800000Y-65933333D01*
X135723809Y-65895238D01*
X135685714Y-65857142D01*
X135647619Y-65780952D01*
X135647619Y-65590476D01*
X135685714Y-65514285D01*
X135723809Y-65476190D01*
X135800000Y-65438095D01*
X136028571Y-65438095D01*
X136104761Y-65476190D01*
X136142857Y-65514285D01*
X140228571Y-65742857D02*
X139619047Y-65742857D01*
X139923809Y-65438095D02*
X139923809Y-66047619D01*
X138857142Y-66238095D02*
X139238095Y-66238095D01*
X139276190Y-65857142D01*
X139238095Y-65895238D01*
X139161904Y-65933333D01*
X138971428Y-65933333D01*
X138895238Y-65895238D01*
X138857142Y-65857142D01*
X138819047Y-65780952D01*
X138819047Y-65590476D01*
X138857142Y-65514285D01*
X138895238Y-65476190D01*
X138971428Y-65438095D01*
X139161904Y-65438095D01*
X139238095Y-65476190D01*
X139276190Y-65514285D01*
X138590476Y-66238095D02*
X138323809Y-65438095D01*
X138057142Y-66238095D01*
X142309523Y-66200000D02*
X142385714Y-66238095D01*
X142500000Y-66238095D01*
X142614285Y-66200000D01*
X142690476Y-66123809D01*
X142728571Y-66047619D01*
X142766666Y-65895238D01*
X142766666Y-65780952D01*
X142728571Y-65628571D01*
X142690476Y-65552380D01*
X142614285Y-65476190D01*
X142500000Y-65438095D01*
X142423809Y-65438095D01*
X142309523Y-65476190D01*
X142271428Y-65514285D01*
X142271428Y-65780952D01*
X142423809Y-65780952D01*
X141928571Y-65438095D02*
X141928571Y-66238095D01*
X141471428Y-65438095D01*
X141471428Y-66238095D01*
X141090476Y-65438095D02*
X141090476Y-66238095D01*
X140900000Y-66238095D01*
X140785714Y-66200000D01*
X140709523Y-66123809D01*
X140671428Y-66047619D01*
X140633333Y-65895238D01*
X140633333Y-65780952D01*
X140671428Y-65628571D01*
X140709523Y-65552380D01*
X140785714Y-65476190D01*
X140900000Y-65438095D01*
X141090476Y-65438095D01*
X144809523Y-66200000D02*
X144885714Y-66238095D01*
X145000000Y-66238095D01*
X145114285Y-66200000D01*
X145190476Y-66123809D01*
X145228571Y-66047619D01*
X145266666Y-65895238D01*
X145266666Y-65780952D01*
X145228571Y-65628571D01*
X145190476Y-65552380D01*
X145114285Y-65476190D01*
X145000000Y-65438095D01*
X144923809Y-65438095D01*
X144809523Y-65476190D01*
X144771428Y-65514285D01*
X144771428Y-65780952D01*
X144923809Y-65780952D01*
X144428571Y-65438095D02*
X144428571Y-66238095D01*
X143971428Y-65438095D01*
X143971428Y-66238095D01*
X143590476Y-65438095D02*
X143590476Y-66238095D01*
X143400000Y-66238095D01*
X143285714Y-66200000D01*
X143209523Y-66123809D01*
X143171428Y-66047619D01*
X143133333Y-65895238D01*
X143133333Y-65780952D01*
X143171428Y-65628571D01*
X143209523Y-65552380D01*
X143285714Y-65476190D01*
X143400000Y-65438095D01*
X143590476Y-65438095D01*
X148609523Y-65742857D02*
X148000000Y-65742857D01*
X148304761Y-65438095D02*
X148304761Y-66047619D01*
X147200000Y-65438095D02*
X147657142Y-65438095D01*
X147428571Y-65438095D02*
X147428571Y-66238095D01*
X147504761Y-66123809D01*
X147580952Y-66047619D01*
X147657142Y-66009523D01*
X146895238Y-66161904D02*
X146857142Y-66200000D01*
X146780952Y-66238095D01*
X146590476Y-66238095D01*
X146514285Y-66200000D01*
X146476190Y-66161904D01*
X146438095Y-66085714D01*
X146438095Y-66009523D01*
X146476190Y-65895238D01*
X146933333Y-65438095D01*
X146438095Y-65438095D01*
X146209523Y-66238095D02*
X145942857Y-65438095D01*
X145676190Y-66238095D01*
X152471428Y-65666666D02*
X152090476Y-65666666D01*
X152547619Y-65438095D02*
X152280952Y-66238095D01*
X152014285Y-65438095D01*
X151595238Y-66238095D02*
X151519047Y-66238095D01*
X151442857Y-66200000D01*
X151404761Y-66161904D01*
X151366666Y-66085714D01*
X151328571Y-65933333D01*
X151328571Y-65742857D01*
X151366666Y-65590476D01*
X151404761Y-65514285D01*
X151442857Y-65476190D01*
X151519047Y-65438095D01*
X151595238Y-65438095D01*
X151671428Y-65476190D01*
X151709523Y-65514285D01*
X151747619Y-65590476D01*
X151785714Y-65742857D01*
X151785714Y-65933333D01*
X151747619Y-66085714D01*
X151709523Y-66161904D01*
X151671428Y-66200000D01*
X151595238Y-66238095D01*
X154971428Y-65666666D02*
X154590476Y-65666666D01*
X155047619Y-65438095D02*
X154780952Y-66238095D01*
X154514285Y-65438095D01*
X153828571Y-65438095D02*
X154285714Y-65438095D01*
X154057142Y-65438095D02*
X154057142Y-66238095D01*
X154133333Y-66123809D01*
X154209523Y-66047619D01*
X154285714Y-66009523D01*
X157571428Y-65666666D02*
X157190476Y-65666666D01*
X157647619Y-65438095D02*
X157380952Y-66238095D01*
X157114285Y-65438095D01*
X156885714Y-66161904D02*
X156847619Y-66200000D01*
X156771428Y-66238095D01*
X156580952Y-66238095D01*
X156504761Y-66200000D01*
X156466666Y-66161904D01*
X156428571Y-66085714D01*
X156428571Y-66009523D01*
X156466666Y-65895238D01*
X156923809Y-65438095D01*
X156428571Y-65438095D01*
X160071428Y-65666666D02*
X159690476Y-65666666D01*
X160147619Y-65438095D02*
X159880952Y-66238095D01*
X159614285Y-65438095D01*
X159423809Y-66238095D02*
X158928571Y-66238095D01*
X159195238Y-65933333D01*
X159080952Y-65933333D01*
X159004761Y-65895238D01*
X158966666Y-65857142D01*
X158928571Y-65780952D01*
X158928571Y-65590476D01*
X158966666Y-65514285D01*
X159004761Y-65476190D01*
X159080952Y-65438095D01*
X159309523Y-65438095D01*
X159385714Y-65476190D01*
X159423809Y-65514285D01*
X162671428Y-65566666D02*
X162290476Y-65566666D01*
X162747619Y-65338095D02*
X162480952Y-66138095D01*
X162214285Y-65338095D01*
X161604761Y-65871428D02*
X161604761Y-65338095D01*
X161795238Y-66176190D02*
X161985714Y-65604761D01*
X161490476Y-65604761D01*
X165171428Y-65566666D02*
X164790476Y-65566666D01*
X165247619Y-65338095D02*
X164980952Y-66138095D01*
X164714285Y-65338095D01*
X164066666Y-66138095D02*
X164447619Y-66138095D01*
X164485714Y-65757142D01*
X164447619Y-65795238D01*
X164371428Y-65833333D01*
X164180952Y-65833333D01*
X164104761Y-65795238D01*
X164066666Y-65757142D01*
X164028571Y-65680952D01*
X164028571Y-65490476D01*
X164066666Y-65414285D01*
X164104761Y-65376190D01*
X164180952Y-65338095D01*
X164371428Y-65338095D01*
X164447619Y-65376190D01*
X164485714Y-65414285D01*
X164009523Y-118161904D02*
X164009523Y-117361904D01*
X164200000Y-117361904D01*
X164314285Y-117400000D01*
X164390476Y-117476190D01*
X164428571Y-117552380D01*
X164466666Y-117704761D01*
X164466666Y-117819047D01*
X164428571Y-117971428D01*
X164390476Y-118047619D01*
X164314285Y-118123809D01*
X164200000Y-118161904D01*
X164009523Y-118161904D01*
X164961904Y-117361904D02*
X165038095Y-117361904D01*
X165114285Y-117400000D01*
X165152380Y-117438095D01*
X165190476Y-117514285D01*
X165228571Y-117666666D01*
X165228571Y-117857142D01*
X165190476Y-118009523D01*
X165152380Y-118085714D01*
X165114285Y-118123809D01*
X165038095Y-118161904D01*
X164961904Y-118161904D01*
X164885714Y-118123809D01*
X164847619Y-118085714D01*
X164809523Y-118009523D01*
X164771428Y-117857142D01*
X164771428Y-117666666D01*
X164809523Y-117514285D01*
X164847619Y-117438095D01*
X164885714Y-117400000D01*
X164961904Y-117361904D01*
X161509523Y-118161904D02*
X161509523Y-117361904D01*
X161700000Y-117361904D01*
X161814285Y-117400000D01*
X161890476Y-117476190D01*
X161928571Y-117552380D01*
X161966666Y-117704761D01*
X161966666Y-117819047D01*
X161928571Y-117971428D01*
X161890476Y-118047619D01*
X161814285Y-118123809D01*
X161700000Y-118161904D01*
X161509523Y-118161904D01*
X162728571Y-118161904D02*
X162271428Y-118161904D01*
X162500000Y-118161904D02*
X162500000Y-117361904D01*
X162423809Y-117476190D01*
X162347619Y-117552380D01*
X162271428Y-117590476D01*
X159009523Y-118161904D02*
X159009523Y-117361904D01*
X159200000Y-117361904D01*
X159314285Y-117400000D01*
X159390476Y-117476190D01*
X159428571Y-117552380D01*
X159466666Y-117704761D01*
X159466666Y-117819047D01*
X159428571Y-117971428D01*
X159390476Y-118047619D01*
X159314285Y-118123809D01*
X159200000Y-118161904D01*
X159009523Y-118161904D01*
X159771428Y-117438095D02*
X159809523Y-117400000D01*
X159885714Y-117361904D01*
X160076190Y-117361904D01*
X160152380Y-117400000D01*
X160190476Y-117438095D01*
X160228571Y-117514285D01*
X160228571Y-117590476D01*
X160190476Y-117704761D01*
X159733333Y-118161904D01*
X160228571Y-118161904D01*
X156409523Y-118161904D02*
X156409523Y-117361904D01*
X156600000Y-117361904D01*
X156714285Y-117400000D01*
X156790476Y-117476190D01*
X156828571Y-117552380D01*
X156866666Y-117704761D01*
X156866666Y-117819047D01*
X156828571Y-117971428D01*
X156790476Y-118047619D01*
X156714285Y-118123809D01*
X156600000Y-118161904D01*
X156409523Y-118161904D01*
X157133333Y-117361904D02*
X157628571Y-117361904D01*
X157361904Y-117666666D01*
X157476190Y-117666666D01*
X157552380Y-117704761D01*
X157590476Y-117742857D01*
X157628571Y-117819047D01*
X157628571Y-118009523D01*
X157590476Y-118085714D01*
X157552380Y-118123809D01*
X157476190Y-118161904D01*
X157247619Y-118161904D01*
X157171428Y-118123809D01*
X157133333Y-118085714D01*
X153909523Y-118161904D02*
X153909523Y-117361904D01*
X154100000Y-117361904D01*
X154214285Y-117400000D01*
X154290476Y-117476190D01*
X154328571Y-117552380D01*
X154366666Y-117704761D01*
X154366666Y-117819047D01*
X154328571Y-117971428D01*
X154290476Y-118047619D01*
X154214285Y-118123809D01*
X154100000Y-118161904D01*
X153909523Y-118161904D01*
X155052380Y-117628571D02*
X155052380Y-118161904D01*
X154861904Y-117323809D02*
X154671428Y-117895238D01*
X155166666Y-117895238D01*
X151309523Y-118161904D02*
X151309523Y-117361904D01*
X151500000Y-117361904D01*
X151614285Y-117400000D01*
X151690476Y-117476190D01*
X151728571Y-117552380D01*
X151766666Y-117704761D01*
X151766666Y-117819047D01*
X151728571Y-117971428D01*
X151690476Y-118047619D01*
X151614285Y-118123809D01*
X151500000Y-118161904D01*
X151309523Y-118161904D01*
X152490476Y-117361904D02*
X152109523Y-117361904D01*
X152071428Y-117742857D01*
X152109523Y-117704761D01*
X152185714Y-117666666D01*
X152376190Y-117666666D01*
X152452380Y-117704761D01*
X152490476Y-117742857D01*
X152528571Y-117819047D01*
X152528571Y-118009523D01*
X152490476Y-118085714D01*
X152452380Y-118123809D01*
X152376190Y-118161904D01*
X152185714Y-118161904D01*
X152109523Y-118123809D01*
X152071428Y-118085714D01*
X148809523Y-118161904D02*
X148809523Y-117361904D01*
X149000000Y-117361904D01*
X149114285Y-117400000D01*
X149190476Y-117476190D01*
X149228571Y-117552380D01*
X149266666Y-117704761D01*
X149266666Y-117819047D01*
X149228571Y-117971428D01*
X149190476Y-118047619D01*
X149114285Y-118123809D01*
X149000000Y-118161904D01*
X148809523Y-118161904D01*
X149952380Y-117361904D02*
X149800000Y-117361904D01*
X149723809Y-117400000D01*
X149685714Y-117438095D01*
X149609523Y-117552380D01*
X149571428Y-117704761D01*
X149571428Y-118009523D01*
X149609523Y-118085714D01*
X149647619Y-118123809D01*
X149723809Y-118161904D01*
X149876190Y-118161904D01*
X149952380Y-118123809D01*
X149990476Y-118085714D01*
X150028571Y-118009523D01*
X150028571Y-117819047D01*
X149990476Y-117742857D01*
X149952380Y-117704761D01*
X149876190Y-117666666D01*
X149723809Y-117666666D01*
X149647619Y-117704761D01*
X149609523Y-117742857D01*
X149571428Y-117819047D01*
X146209523Y-118161904D02*
X146209523Y-117361904D01*
X146400000Y-117361904D01*
X146514285Y-117400000D01*
X146590476Y-117476190D01*
X146628571Y-117552380D01*
X146666666Y-117704761D01*
X146666666Y-117819047D01*
X146628571Y-117971428D01*
X146590476Y-118047619D01*
X146514285Y-118123809D01*
X146400000Y-118161904D01*
X146209523Y-118161904D01*
X146933333Y-117361904D02*
X147466666Y-117361904D01*
X147123809Y-118161904D01*
X142209523Y-118161904D02*
X142209523Y-117361904D01*
X142400000Y-117361904D01*
X142514285Y-117400000D01*
X142590476Y-117476190D01*
X142628571Y-117552380D01*
X142666666Y-117704761D01*
X142666666Y-117819047D01*
X142628571Y-117971428D01*
X142590476Y-118047619D01*
X142514285Y-118123809D01*
X142400000Y-118161904D01*
X142209523Y-118161904D01*
X143123809Y-117704761D02*
X143047619Y-117666666D01*
X143009523Y-117628571D01*
X142971428Y-117552380D01*
X142971428Y-117514285D01*
X143009523Y-117438095D01*
X143047619Y-117400000D01*
X143123809Y-117361904D01*
X143276190Y-117361904D01*
X143352380Y-117400000D01*
X143390476Y-117438095D01*
X143428571Y-117514285D01*
X143428571Y-117552380D01*
X143390476Y-117628571D01*
X143352380Y-117666666D01*
X143276190Y-117704761D01*
X143123809Y-117704761D01*
X143047619Y-117742857D01*
X143009523Y-117780952D01*
X142971428Y-117857142D01*
X142971428Y-118009523D01*
X143009523Y-118085714D01*
X143047619Y-118123809D01*
X143123809Y-118161904D01*
X143276190Y-118161904D01*
X143352380Y-118123809D01*
X143390476Y-118085714D01*
X143428571Y-118009523D01*
X143428571Y-117857142D01*
X143390476Y-117780952D01*
X143352380Y-117742857D01*
X143276190Y-117704761D01*
X139609523Y-118161904D02*
X139609523Y-117361904D01*
X139800000Y-117361904D01*
X139914285Y-117400000D01*
X139990476Y-117476190D01*
X140028571Y-117552380D01*
X140066666Y-117704761D01*
X140066666Y-117819047D01*
X140028571Y-117971428D01*
X139990476Y-118047619D01*
X139914285Y-118123809D01*
X139800000Y-118161904D01*
X139609523Y-118161904D01*
X140447619Y-118161904D02*
X140600000Y-118161904D01*
X140676190Y-118123809D01*
X140714285Y-118085714D01*
X140790476Y-117971428D01*
X140828571Y-117819047D01*
X140828571Y-117514285D01*
X140790476Y-117438095D01*
X140752380Y-117400000D01*
X140676190Y-117361904D01*
X140523809Y-117361904D01*
X140447619Y-117400000D01*
X140409523Y-117438095D01*
X140371428Y-117514285D01*
X140371428Y-117704761D01*
X140409523Y-117780952D01*
X140447619Y-117819047D01*
X140523809Y-117857142D01*
X140676190Y-117857142D01*
X140752380Y-117819047D01*
X140790476Y-117780952D01*
X140828571Y-117704761D01*
X136928571Y-118161904D02*
X136928571Y-117361904D01*
X137119047Y-117361904D01*
X137233333Y-117400000D01*
X137309523Y-117476190D01*
X137347619Y-117552380D01*
X137385714Y-117704761D01*
X137385714Y-117819047D01*
X137347619Y-117971428D01*
X137309523Y-118047619D01*
X137233333Y-118123809D01*
X137119047Y-118161904D01*
X136928571Y-118161904D01*
X138147619Y-118161904D02*
X137690476Y-118161904D01*
X137919047Y-118161904D02*
X137919047Y-117361904D01*
X137842857Y-117476190D01*
X137766666Y-117552380D01*
X137690476Y-117590476D01*
X138642857Y-117361904D02*
X138719047Y-117361904D01*
X138795238Y-117400000D01*
X138833333Y-117438095D01*
X138871428Y-117514285D01*
X138909523Y-117666666D01*
X138909523Y-117857142D01*
X138871428Y-118009523D01*
X138833333Y-118085714D01*
X138795238Y-118123809D01*
X138719047Y-118161904D01*
X138642857Y-118161904D01*
X138566666Y-118123809D01*
X138528571Y-118085714D01*
X138490476Y-118009523D01*
X138452380Y-117857142D01*
X138452380Y-117666666D01*
X138490476Y-117514285D01*
X138528571Y-117438095D01*
X138566666Y-117400000D01*
X138642857Y-117361904D01*
X134528571Y-118161904D02*
X134528571Y-117361904D01*
X134719047Y-117361904D01*
X134833333Y-117400000D01*
X134909523Y-117476190D01*
X134947619Y-117552380D01*
X134985714Y-117704761D01*
X134985714Y-117819047D01*
X134947619Y-117971428D01*
X134909523Y-118047619D01*
X134833333Y-118123809D01*
X134719047Y-118161904D01*
X134528571Y-118161904D01*
X135747619Y-118161904D02*
X135290476Y-118161904D01*
X135519047Y-118161904D02*
X135519047Y-117361904D01*
X135442857Y-117476190D01*
X135366666Y-117552380D01*
X135290476Y-117590476D01*
X136509523Y-118161904D02*
X136052380Y-118161904D01*
X136280952Y-118161904D02*
X136280952Y-117361904D01*
X136204761Y-117476190D01*
X136128571Y-117552380D01*
X136052380Y-117590476D01*
X132028571Y-118161904D02*
X132028571Y-117361904D01*
X132219047Y-117361904D01*
X132333333Y-117400000D01*
X132409523Y-117476190D01*
X132447619Y-117552380D01*
X132485714Y-117704761D01*
X132485714Y-117819047D01*
X132447619Y-117971428D01*
X132409523Y-118047619D01*
X132333333Y-118123809D01*
X132219047Y-118161904D01*
X132028571Y-118161904D01*
X133247619Y-118161904D02*
X132790476Y-118161904D01*
X133019047Y-118161904D02*
X133019047Y-117361904D01*
X132942857Y-117476190D01*
X132866666Y-117552380D01*
X132790476Y-117590476D01*
X133552380Y-117438095D02*
X133590476Y-117400000D01*
X133666666Y-117361904D01*
X133857142Y-117361904D01*
X133933333Y-117400000D01*
X133971428Y-117438095D01*
X134009523Y-117514285D01*
X134009523Y-117590476D01*
X133971428Y-117704761D01*
X133514285Y-118161904D01*
X134009523Y-118161904D01*
X129528571Y-118161904D02*
X129528571Y-117361904D01*
X129719047Y-117361904D01*
X129833333Y-117400000D01*
X129909523Y-117476190D01*
X129947619Y-117552380D01*
X129985714Y-117704761D01*
X129985714Y-117819047D01*
X129947619Y-117971428D01*
X129909523Y-118047619D01*
X129833333Y-118123809D01*
X129719047Y-118161904D01*
X129528571Y-118161904D01*
X130747619Y-118161904D02*
X130290476Y-118161904D01*
X130519047Y-118161904D02*
X130519047Y-117361904D01*
X130442857Y-117476190D01*
X130366666Y-117552380D01*
X130290476Y-117590476D01*
X131014285Y-117361904D02*
X131509523Y-117361904D01*
X131242857Y-117666666D01*
X131357142Y-117666666D01*
X131433333Y-117704761D01*
X131471428Y-117742857D01*
X131509523Y-117819047D01*
X131509523Y-118009523D01*
X131471428Y-118085714D01*
X131433333Y-118123809D01*
X131357142Y-118161904D01*
X131128571Y-118161904D01*
X131052380Y-118123809D01*
X131014285Y-118085714D01*
X127390476Y-117400000D02*
X127314285Y-117361904D01*
X127200000Y-117361904D01*
X127085714Y-117400000D01*
X127009523Y-117476190D01*
X126971428Y-117552380D01*
X126933333Y-117704761D01*
X126933333Y-117819047D01*
X126971428Y-117971428D01*
X127009523Y-118047619D01*
X127085714Y-118123809D01*
X127200000Y-118161904D01*
X127276190Y-118161904D01*
X127390476Y-118123809D01*
X127428571Y-118085714D01*
X127428571Y-117819047D01*
X127276190Y-117819047D01*
X127771428Y-118161904D02*
X127771428Y-117361904D01*
X128228571Y-118161904D01*
X128228571Y-117361904D01*
X128609523Y-118161904D02*
X128609523Y-117361904D01*
X128800000Y-117361904D01*
X128914285Y-117400000D01*
X128990476Y-117476190D01*
X129028571Y-117552380D01*
X129066666Y-117704761D01*
X129066666Y-117819047D01*
X129028571Y-117971428D01*
X128990476Y-118047619D01*
X128914285Y-118123809D01*
X128800000Y-118161904D01*
X128609523Y-118161904D01*
X123904761Y-117933333D02*
X124285714Y-117933333D01*
X123828571Y-118161904D02*
X124095238Y-117361904D01*
X124361904Y-118161904D01*
X125085714Y-118161904D02*
X124819047Y-117780952D01*
X124628571Y-118161904D02*
X124628571Y-117361904D01*
X124933333Y-117361904D01*
X125009523Y-117400000D01*
X125047619Y-117438095D01*
X125085714Y-117514285D01*
X125085714Y-117628571D01*
X125047619Y-117704761D01*
X125009523Y-117742857D01*
X124933333Y-117780952D01*
X124628571Y-117780952D01*
X125428571Y-117742857D02*
X125695238Y-117742857D01*
X125809523Y-118161904D02*
X125428571Y-118161904D01*
X125428571Y-117361904D01*
X125809523Y-117361904D01*
X126419047Y-117742857D02*
X126152380Y-117742857D01*
X126152380Y-118161904D02*
X126152380Y-117361904D01*
X126533333Y-117361904D01*
X121228571Y-118123809D02*
X121342857Y-118161904D01*
X121533333Y-118161904D01*
X121609523Y-118123809D01*
X121647619Y-118085714D01*
X121685714Y-118009523D01*
X121685714Y-117933333D01*
X121647619Y-117857142D01*
X121609523Y-117819047D01*
X121533333Y-117780952D01*
X121380952Y-117742857D01*
X121304761Y-117704761D01*
X121266666Y-117666666D01*
X121228571Y-117590476D01*
X121228571Y-117514285D01*
X121266666Y-117438095D01*
X121304761Y-117400000D01*
X121380952Y-117361904D01*
X121571428Y-117361904D01*
X121685714Y-117400000D01*
X122028571Y-118161904D02*
X122028571Y-117361904D01*
X122219047Y-117361904D01*
X122333333Y-117400000D01*
X122409523Y-117476190D01*
X122447619Y-117552380D01*
X122485714Y-117704761D01*
X122485714Y-117819047D01*
X122447619Y-117971428D01*
X122409523Y-118047619D01*
X122333333Y-118123809D01*
X122219047Y-118161904D01*
X122028571Y-118161904D01*
X122790476Y-117933333D02*
X123171428Y-117933333D01*
X122714285Y-118161904D02*
X122980952Y-117361904D01*
X123247619Y-118161904D01*
X118647619Y-118123809D02*
X118761904Y-118161904D01*
X118952380Y-118161904D01*
X119028571Y-118123809D01*
X119066666Y-118085714D01*
X119104761Y-118009523D01*
X119104761Y-117933333D01*
X119066666Y-117857142D01*
X119028571Y-117819047D01*
X118952380Y-117780952D01*
X118800000Y-117742857D01*
X118723809Y-117704761D01*
X118685714Y-117666666D01*
X118647619Y-117590476D01*
X118647619Y-117514285D01*
X118685714Y-117438095D01*
X118723809Y-117400000D01*
X118800000Y-117361904D01*
X118990476Y-117361904D01*
X119104761Y-117400000D01*
X119904761Y-118085714D02*
X119866666Y-118123809D01*
X119752380Y-118161904D01*
X119676190Y-118161904D01*
X119561904Y-118123809D01*
X119485714Y-118047619D01*
X119447619Y-117971428D01*
X119409523Y-117819047D01*
X119409523Y-117704761D01*
X119447619Y-117552380D01*
X119485714Y-117476190D01*
X119561904Y-117400000D01*
X119676190Y-117361904D01*
X119752380Y-117361904D01*
X119866666Y-117400000D01*
X119904761Y-117438095D01*
X120628571Y-118161904D02*
X120247619Y-118161904D01*
X120247619Y-117361904D01*
D10*
X114864285Y-110107142D02*
X116007142Y-110107142D01*
X118650000Y-109250000D02*
X118507142Y-109178571D01*
X118292857Y-109178571D01*
X118078571Y-109250000D01*
X117935714Y-109392857D01*
X117864285Y-109535714D01*
X117792857Y-109821428D01*
X117792857Y-110035714D01*
X117864285Y-110321428D01*
X117935714Y-110464285D01*
X118078571Y-110607142D01*
X118292857Y-110678571D01*
X118435714Y-110678571D01*
X118650000Y-110607142D01*
X118721428Y-110535714D01*
X118721428Y-110035714D01*
X118435714Y-110035714D01*
X119292857Y-110250000D02*
X120007142Y-110250000D01*
X119150000Y-110678571D02*
X119650000Y-109178571D01*
X120150000Y-110678571D01*
X120650000Y-110678571D02*
X120650000Y-109178571D01*
X121364285Y-110678571D02*
X121364285Y-109178571D01*
X122221428Y-110678571D01*
X122221428Y-109178571D01*
X124007142Y-110607142D02*
X124221428Y-110678571D01*
X124578571Y-110678571D01*
X124721428Y-110607142D01*
X124792857Y-110535714D01*
X124864285Y-110392857D01*
X124864285Y-110250000D01*
X124792857Y-110107142D01*
X124721428Y-110035714D01*
X124578571Y-109964285D01*
X124292857Y-109892857D01*
X124150000Y-109821428D01*
X124078571Y-109750000D01*
X124007142Y-109607142D01*
X124007142Y-109464285D01*
X124078571Y-109321428D01*
X124150000Y-109250000D01*
X124292857Y-109178571D01*
X124650000Y-109178571D01*
X124864285Y-109250000D01*
X125507142Y-109892857D02*
X126007142Y-109892857D01*
X126221428Y-110678571D02*
X125507142Y-110678571D01*
X125507142Y-109178571D01*
X126221428Y-109178571D01*
X126650000Y-109178571D02*
X127507142Y-109178571D01*
X127078571Y-110678571D02*
X127078571Y-109178571D01*
X128007142Y-110678571D02*
X128007142Y-109178571D01*
X128578571Y-109178571D01*
X128721428Y-109250000D01*
X128792857Y-109321428D01*
X128864285Y-109464285D01*
X128864285Y-109678571D01*
X128792857Y-109821428D01*
X128721428Y-109892857D01*
X128578571Y-109964285D01*
X128007142Y-109964285D01*
X129292857Y-109178571D02*
X130150000Y-109178571D01*
X129721428Y-110678571D02*
X129721428Y-109178571D01*
X131792857Y-110107142D02*
X132935714Y-110107142D01*
X132364285Y-110678571D02*
X132364285Y-109535714D01*
X135721428Y-110107142D02*
X136864285Y-110107142D01*
X139507142Y-109250000D02*
X139364285Y-109178571D01*
X139150000Y-109178571D01*
X138935714Y-109250000D01*
X138792857Y-109392857D01*
X138721428Y-109535714D01*
X138650000Y-109821428D01*
X138650000Y-110035714D01*
X138721428Y-110321428D01*
X138792857Y-110464285D01*
X138935714Y-110607142D01*
X139150000Y-110678571D01*
X139292857Y-110678571D01*
X139507142Y-110607142D01*
X139578571Y-110535714D01*
X139578571Y-110035714D01*
X139292857Y-110035714D01*
X140150000Y-110250000D02*
X140864285Y-110250000D01*
X140007142Y-110678571D02*
X140507142Y-109178571D01*
X141007142Y-110678571D01*
X141507142Y-110678571D02*
X141507142Y-109178571D01*
X142221428Y-110678571D02*
X142221428Y-109178571D01*
X143078571Y-110678571D01*
X143078571Y-109178571D01*
X144935714Y-110107142D02*
X146078571Y-110107142D01*
X145507142Y-110678571D02*
X145507142Y-109535714D01*
X154000000Y-90207142D02*
X155142857Y-90207142D01*
X156928571Y-90350000D02*
X157642857Y-90350000D01*
X156785714Y-90778571D02*
X157285714Y-89278571D01*
X157785714Y-90778571D01*
X158928571Y-89778571D02*
X158928571Y-90778571D01*
X158571428Y-89207142D02*
X158214285Y-90278571D01*
X159142857Y-90278571D01*
X160857142Y-90207142D02*
X162000000Y-90207142D01*
X161428571Y-90778571D02*
X161428571Y-89635714D01*
X137000000Y-90207142D02*
X138142857Y-90207142D01*
X139928571Y-90350000D02*
X140642857Y-90350000D01*
X139785714Y-90778571D02*
X140285714Y-89278571D01*
X140785714Y-90778571D01*
X141928571Y-89778571D02*
X141928571Y-90778571D01*
X141571428Y-89207142D02*
X141214285Y-90278571D01*
X142142857Y-90278571D01*
X143857142Y-90207142D02*
X145000000Y-90207142D01*
X144428571Y-90778571D02*
X144428571Y-89635714D01*
X120000000Y-90207142D02*
X121142857Y-90207142D01*
X122928571Y-90350000D02*
X123642857Y-90350000D01*
X122785714Y-90778571D02*
X123285714Y-89278571D01*
X123785714Y-90778571D01*
X124142857Y-89278571D02*
X125071428Y-89278571D01*
X124571428Y-89850000D01*
X124785714Y-89850000D01*
X124928571Y-89921428D01*
X125000000Y-89992857D01*
X125071428Y-90135714D01*
X125071428Y-90492857D01*
X125000000Y-90635714D01*
X124928571Y-90707142D01*
X124785714Y-90778571D01*
X124357142Y-90778571D01*
X124214285Y-90707142D01*
X124142857Y-90635714D01*
X126857142Y-90207142D02*
X128000000Y-90207142D01*
X127428571Y-90778571D02*
X127428571Y-89635714D01*
D12*
X167295000Y-105517500D02*
X169835000Y-102977500D01*
X167295000Y-116947500D02*
X167295000Y-105517500D01*
X165645000Y-118597500D02*
X167295000Y-116947500D01*
X100995000Y-118597500D02*
X165645000Y-118597500D01*
X100995000Y-109067500D02*
X100995000Y-118597500D01*
X94645000Y-109067500D02*
X100995000Y-109067500D01*
X94645000Y-97387500D02*
X94645000Y-109067500D01*
X100995000Y-97387500D02*
X94645000Y-97387500D01*
X100995000Y-77317500D02*
X100995000Y-97387500D01*
X99095000Y-77317500D02*
X100995000Y-77317500D01*
X99095000Y-68177500D02*
X99095000Y-77317500D01*
X100995000Y-68177500D02*
X99095000Y-68177500D01*
X100995000Y-64997500D02*
X100995000Y-68177500D01*
X167295000Y-64997500D02*
X100995000Y-64997500D01*
X167295000Y-67667500D02*
X167295000Y-64997500D01*
X169835000Y-70207500D02*
X167295000Y-67667500D01*
X169835000Y-102977500D02*
X169835000Y-70207500D01*
X165870000Y-96410000D02*
X168530000Y-96410000D01*
X165870000Y-91270000D02*
X165870000Y-96410000D01*
X168530000Y-91270000D02*
X168530000Y-96410000D01*
X165870000Y-91270000D02*
X168530000Y-91270000D01*
X165870000Y-90000000D02*
X165870000Y-88670000D01*
X165870000Y-88670000D02*
X167200000Y-88670000D01*
X105624721Y-84109736D02*
G75*
G02X105880000Y-85000000I-1424721J-890264D01*
G01*
X103309807Y-83574495D02*
G75*
G02X105091000Y-83575000I890193J-1425505D01*
G01*
X102774642Y-85889894D02*
G75*
G02X102760000Y-84134000I1425358J889894D01*
G01*
X105089894Y-86425358D02*
G75*
G02X103334000Y-86440000I-889894J1425358D01*
G01*
X105880099Y-84971326D02*
G75*
G02X105640000Y-85866000I-1680099J-28674D01*
G01*
X105880000Y-81500000D02*
G75*
G03X105880000Y-81500000I-1680000J0D01*
G01*
X108300000Y-86810000D02*
X108300000Y-79690000D01*
X107200000Y-86810000D02*
X107200000Y-79690000D01*
X101040000Y-86810000D02*
X101040000Y-79690000D01*
X108760000Y-86810000D02*
X108760000Y-79690000D01*
X101040000Y-86810000D02*
X108760000Y-86810000D01*
X101040000Y-79690000D02*
X108760000Y-79690000D01*
X103131000Y-80225000D02*
X103259000Y-80354000D01*
X105381000Y-82475000D02*
X105474000Y-82569000D01*
X102925000Y-80430000D02*
X103019000Y-80524000D01*
X105141000Y-82645000D02*
X105269000Y-82774000D01*
X108360000Y-87050000D02*
X109000000Y-87050000D01*
X109000000Y-87050000D02*
X109000000Y-86650000D01*
X158100000Y-102750000D02*
X158100000Y-103150000D01*
X158740000Y-102750000D02*
X158100000Y-102750000D01*
X161959000Y-107155000D02*
X161831000Y-107026000D01*
X164175000Y-109370000D02*
X164081000Y-109276000D01*
X161719000Y-107325000D02*
X161626000Y-107231000D01*
X163969000Y-109575000D02*
X163841000Y-109446000D01*
X166060000Y-110110000D02*
X158340000Y-110110000D01*
X166060000Y-102990000D02*
X158340000Y-102990000D01*
X158340000Y-102990000D02*
X158340000Y-110110000D01*
X166060000Y-102990000D02*
X166060000Y-110110000D01*
X159900000Y-102990000D02*
X159900000Y-110110000D01*
X158800000Y-102990000D02*
X158800000Y-110110000D01*
X164580000Y-108300000D02*
G75*
G03X164580000Y-108300000I-1680000J0D01*
G01*
X161219901Y-104828674D02*
G75*
G02X161460000Y-103934000I1680099J28674D01*
G01*
X162010106Y-103374642D02*
G75*
G02X163766000Y-103360000I889894J-1425358D01*
G01*
X164325358Y-103910106D02*
G75*
G02X164340000Y-105666000I-1425358J-889894D01*
G01*
X163790193Y-106225505D02*
G75*
G02X162009000Y-106225000I-890193J1425505D01*
G01*
X161475279Y-105690264D02*
G75*
G02X161220000Y-104800000I1424721J890264D01*
G01*
X160520000Y-95500000D02*
X160520000Y-94500000D01*
X161880000Y-94500000D02*
X161880000Y-95500000D01*
X161880000Y-91500000D02*
X161880000Y-92500000D01*
X160520000Y-92500000D02*
X160520000Y-91500000D01*
D13*
X130575000Y-72350000D02*
X130575000Y-73000000D01*
X129725000Y-72350000D02*
X130575000Y-72350000D01*
X130575000Y-88800000D02*
X129825000Y-88800000D01*
X130575000Y-88025000D02*
X130575000Y-88800000D01*
X117325000Y-72350000D02*
X117325000Y-73250000D01*
X118400000Y-72350000D02*
X117325000Y-72350000D01*
X117750000Y-88800000D02*
X119050000Y-88800000D01*
X117325000Y-88350000D02*
X117750000Y-88800000D01*
X117325000Y-87575000D02*
X117325000Y-88350000D01*
X130575000Y-92350000D02*
X130575000Y-93000000D01*
X129725000Y-92350000D02*
X130575000Y-92350000D01*
X130575000Y-108800000D02*
X129825000Y-108800000D01*
X130575000Y-108025000D02*
X130575000Y-108800000D01*
X117325000Y-92350000D02*
X117325000Y-93250000D01*
X118400000Y-92350000D02*
X117325000Y-92350000D01*
X117750000Y-108800000D02*
X119050000Y-108800000D01*
X117325000Y-108350000D02*
X117750000Y-108800000D01*
X117325000Y-107575000D02*
X117325000Y-108350000D01*
X134325000Y-87575000D02*
X134325000Y-88350000D01*
X134325000Y-88350000D02*
X134750000Y-88800000D01*
X134750000Y-88800000D02*
X136050000Y-88800000D01*
X135400000Y-72350000D02*
X134325000Y-72350000D01*
X134325000Y-72350000D02*
X134325000Y-73250000D01*
X147575000Y-88025000D02*
X147575000Y-88800000D01*
X147575000Y-88800000D02*
X146825000Y-88800000D01*
X146725000Y-72350000D02*
X147575000Y-72350000D01*
X147575000Y-72350000D02*
X147575000Y-73000000D01*
X134325000Y-107575000D02*
X134325000Y-108350000D01*
X134325000Y-108350000D02*
X134750000Y-108800000D01*
X134750000Y-108800000D02*
X136050000Y-108800000D01*
X135400000Y-92350000D02*
X134325000Y-92350000D01*
X134325000Y-92350000D02*
X134325000Y-93250000D01*
X147575000Y-108025000D02*
X147575000Y-108800000D01*
X147575000Y-108800000D02*
X146825000Y-108800000D01*
X146725000Y-92350000D02*
X147575000Y-92350000D01*
X147575000Y-92350000D02*
X147575000Y-93000000D01*
X164575000Y-72350000D02*
X164575000Y-73000000D01*
X163725000Y-72350000D02*
X164575000Y-72350000D01*
X164575000Y-88800000D02*
X163825000Y-88800000D01*
X164575000Y-88025000D02*
X164575000Y-88800000D01*
X151325000Y-72350000D02*
X151325000Y-73250000D01*
X152400000Y-72350000D02*
X151325000Y-72350000D01*
X151750000Y-88800000D02*
X153050000Y-88800000D01*
X151325000Y-88350000D02*
X151750000Y-88800000D01*
X151325000Y-87575000D02*
X151325000Y-88350000D01*
D12*
X159100000Y-92390000D02*
X157300000Y-92390000D01*
X157300000Y-95610000D02*
X159750000Y-95610000D01*
D14*
X155675000Y-100525000D02*
X155625000Y-100525000D01*
X155675000Y-104675000D02*
X155530000Y-104675000D01*
X150525000Y-104675000D02*
X150670000Y-104675000D01*
X150525000Y-100525000D02*
X150670000Y-100525000D01*
X155675000Y-100525000D02*
X155675000Y-104675000D01*
X150525000Y-100525000D02*
X150525000Y-104675000D01*
X155625000Y-100525000D02*
X155625000Y-99125000D01*
D12*
X118570000Y-114330000D02*
X118570000Y-113000000D01*
X119900000Y-114330000D02*
X118570000Y-114330000D01*
X121170000Y-114330000D02*
X121170000Y-111670000D01*
X121170000Y-111670000D02*
X144090000Y-111670000D01*
X121170000Y-114330000D02*
X144090000Y-114330000D01*
X144090000Y-114330000D02*
X144090000Y-111670000D01*
X166010000Y-114330000D02*
X166010000Y-111670000D01*
X148170000Y-114330000D02*
X166010000Y-114330000D01*
X148170000Y-111670000D02*
X166010000Y-111670000D01*
X148170000Y-114330000D02*
X148170000Y-111670000D01*
X146900000Y-114330000D02*
X145570000Y-114330000D01*
X145570000Y-114330000D02*
X145570000Y-113000000D01*
X127770000Y-71730000D02*
X127770000Y-70400000D01*
X129100000Y-71730000D02*
X127770000Y-71730000D01*
X130370000Y-71730000D02*
X130370000Y-69070000D01*
X130370000Y-69070000D02*
X148210000Y-69070000D01*
X130370000Y-71730000D02*
X148210000Y-71730000D01*
X148210000Y-71730000D02*
X148210000Y-69070000D01*
X150570000Y-71730000D02*
X150570000Y-70400000D01*
X151900000Y-71730000D02*
X150570000Y-71730000D01*
X153170000Y-71730000D02*
X153170000Y-69070000D01*
X153170000Y-69070000D02*
X165930000Y-69070000D01*
X153170000Y-71730000D02*
X165930000Y-71730000D01*
X165930000Y-71730000D02*
X165930000Y-69070000D01*
D14*
X128668333Y-64024166D02*
X129144523Y-64024166D01*
X128573095Y-64309880D02*
X128906428Y-63309880D01*
X129239761Y-64309880D01*
X130096904Y-64309880D02*
X129525476Y-64309880D01*
X129811190Y-64309880D02*
X129811190Y-63309880D01*
X129715952Y-63452738D01*
X129620714Y-63547976D01*
X129525476Y-63595595D01*
X130715952Y-63309880D02*
X130811190Y-63309880D01*
X130906428Y-63357500D01*
X130954047Y-63405119D01*
X131001666Y-63500357D01*
X131049285Y-63690833D01*
X131049285Y-63928928D01*
X131001666Y-64119404D01*
X130954047Y-64214642D01*
X130906428Y-64262261D01*
X130811190Y-64309880D01*
X130715952Y-64309880D01*
X130620714Y-64262261D01*
X130573095Y-64214642D01*
X130525476Y-64119404D01*
X130477857Y-63928928D01*
X130477857Y-63690833D01*
X130525476Y-63500357D01*
X130573095Y-63405119D01*
X130620714Y-63357500D01*
X130715952Y-63309880D01*
X132001666Y-64309880D02*
X131430238Y-64309880D01*
X131715952Y-64309880D02*
X131715952Y-63309880D01*
X131620714Y-63452738D01*
X131525476Y-63547976D01*
X131430238Y-63595595D01*
X165914285Y-87122380D02*
X165914285Y-87836666D01*
X165866666Y-87979523D01*
X165771428Y-88074761D01*
X165628571Y-88122380D01*
X165533333Y-88122380D01*
X166914285Y-88122380D02*
X166342857Y-88122380D01*
X166628571Y-88122380D02*
X166628571Y-87122380D01*
X166533333Y-87265238D01*
X166438095Y-87360476D01*
X166342857Y-87408095D01*
X167533333Y-87122380D02*
X167628571Y-87122380D01*
X167723809Y-87170000D01*
X167771428Y-87217619D01*
X167819047Y-87312857D01*
X167866666Y-87503333D01*
X167866666Y-87741428D01*
X167819047Y-87931904D01*
X167771428Y-88027142D01*
X167723809Y-88074761D01*
X167628571Y-88122380D01*
X167533333Y-88122380D01*
X167438095Y-88074761D01*
X167390476Y-88027142D01*
X167342857Y-87931904D01*
X167295238Y-87741428D01*
X167295238Y-87503333D01*
X167342857Y-87312857D01*
X167390476Y-87217619D01*
X167438095Y-87170000D01*
X167533333Y-87122380D01*
X168819047Y-88122380D02*
X168247619Y-88122380D01*
X168533333Y-88122380D02*
X168533333Y-87122380D01*
X168438095Y-87265238D01*
X168342857Y-87360476D01*
X168247619Y-87408095D01*
X99492380Y-84535714D02*
X100206666Y-84535714D01*
X100349523Y-84583333D01*
X100444761Y-84678571D01*
X100492380Y-84821428D01*
X100492380Y-84916666D01*
X100492380Y-83535714D02*
X100492380Y-84107142D01*
X100492380Y-83821428D02*
X99492380Y-83821428D01*
X99635238Y-83916666D01*
X99730476Y-84011904D01*
X99778095Y-84107142D01*
X99492380Y-82916666D02*
X99492380Y-82821428D01*
X99540000Y-82726190D01*
X99587619Y-82678571D01*
X99682857Y-82630952D01*
X99873333Y-82583333D01*
X100111428Y-82583333D01*
X100301904Y-82630952D01*
X100397142Y-82678571D01*
X100444761Y-82726190D01*
X100492380Y-82821428D01*
X100492380Y-82916666D01*
X100444761Y-83011904D01*
X100397142Y-83059523D01*
X100301904Y-83107142D01*
X100111428Y-83154761D01*
X99873333Y-83154761D01*
X99682857Y-83107142D01*
X99587619Y-83059523D01*
X99540000Y-83011904D01*
X99492380Y-82916666D01*
X99587619Y-82202380D02*
X99540000Y-82154761D01*
X99492380Y-82059523D01*
X99492380Y-81821428D01*
X99540000Y-81726190D01*
X99587619Y-81678571D01*
X99682857Y-81630952D01*
X99778095Y-81630952D01*
X99920952Y-81678571D01*
X100492380Y-82250000D01*
X100492380Y-81630952D01*
X167512380Y-108311904D02*
X166512380Y-108311904D01*
X167226666Y-107978571D01*
X166512380Y-107645238D01*
X167512380Y-107645238D01*
X167512380Y-106645238D02*
X167512380Y-107216666D01*
X167512380Y-106930952D02*
X166512380Y-106930952D01*
X166655238Y-107026190D01*
X166750476Y-107121428D01*
X166798095Y-107216666D01*
X166512380Y-106026190D02*
X166512380Y-105930952D01*
X166560000Y-105835714D01*
X166607619Y-105788095D01*
X166702857Y-105740476D01*
X166893333Y-105692857D01*
X167131428Y-105692857D01*
X167321904Y-105740476D01*
X167417142Y-105788095D01*
X167464761Y-105835714D01*
X167512380Y-105930952D01*
X167512380Y-106026190D01*
X167464761Y-106121428D01*
X167417142Y-106169047D01*
X167321904Y-106216666D01*
X167131428Y-106264285D01*
X166893333Y-106264285D01*
X166702857Y-106216666D01*
X166607619Y-106169047D01*
X166560000Y-106121428D01*
X166512380Y-106026190D01*
X167512380Y-104740476D02*
X167512380Y-105311904D01*
X167512380Y-105026190D02*
X166512380Y-105026190D01*
X166655238Y-105121428D01*
X166750476Y-105216666D01*
X166798095Y-105311904D01*
X163152380Y-97619047D02*
X162676190Y-97952380D01*
X163152380Y-98190476D02*
X162152380Y-98190476D01*
X162152380Y-97809523D01*
X162200000Y-97714285D01*
X162247619Y-97666666D01*
X162342857Y-97619047D01*
X162485714Y-97619047D01*
X162580952Y-97666666D01*
X162628571Y-97714285D01*
X162676190Y-97809523D01*
X162676190Y-98190476D01*
X163152380Y-96666666D02*
X163152380Y-97238095D01*
X163152380Y-96952380D02*
X162152380Y-96952380D01*
X162295238Y-97047619D01*
X162390476Y-97142857D01*
X162438095Y-97238095D01*
X162152380Y-96047619D02*
X162152380Y-95952380D01*
X162200000Y-95857142D01*
X162247619Y-95809523D01*
X162342857Y-95761904D01*
X162533333Y-95714285D01*
X162771428Y-95714285D01*
X162961904Y-95761904D01*
X163057142Y-95809523D01*
X163104761Y-95857142D01*
X163152380Y-95952380D01*
X163152380Y-96047619D01*
X163104761Y-96142857D01*
X163057142Y-96190476D01*
X162961904Y-96238095D01*
X162771428Y-96285714D01*
X162533333Y-96285714D01*
X162342857Y-96238095D01*
X162247619Y-96190476D01*
X162200000Y-96142857D01*
X162152380Y-96047619D01*
X163152380Y-94761904D02*
X163152380Y-95333333D01*
X163152380Y-95047619D02*
X162152380Y-95047619D01*
X162295238Y-95142857D01*
X162390476Y-95238095D01*
X162438095Y-95333333D01*
X163152380Y-93619047D02*
X162676190Y-93952380D01*
X163152380Y-94190476D02*
X162152380Y-94190476D01*
X162152380Y-93809523D01*
X162200000Y-93714285D01*
X162247619Y-93666666D01*
X162342857Y-93619047D01*
X162485714Y-93619047D01*
X162580952Y-93666666D01*
X162628571Y-93714285D01*
X162676190Y-93809523D01*
X162676190Y-94190476D01*
X163152380Y-92666666D02*
X163152380Y-93238095D01*
X163152380Y-92952380D02*
X162152380Y-92952380D01*
X162295238Y-93047619D01*
X162390476Y-93142857D01*
X162438095Y-93238095D01*
X162152380Y-92047619D02*
X162152380Y-91952380D01*
X162200000Y-91857142D01*
X162247619Y-91809523D01*
X162342857Y-91761904D01*
X162533333Y-91714285D01*
X162771428Y-91714285D01*
X162961904Y-91761904D01*
X163057142Y-91809523D01*
X163104761Y-91857142D01*
X163152380Y-91952380D01*
X163152380Y-92047619D01*
X163104761Y-92142857D01*
X163057142Y-92190476D01*
X162961904Y-92238095D01*
X162771428Y-92285714D01*
X162533333Y-92285714D01*
X162342857Y-92238095D01*
X162247619Y-92190476D01*
X162200000Y-92142857D01*
X162152380Y-92047619D01*
X162247619Y-91333333D02*
X162200000Y-91285714D01*
X162152380Y-91190476D01*
X162152380Y-90952380D01*
X162200000Y-90857142D01*
X162247619Y-90809523D01*
X162342857Y-90761904D01*
X162438095Y-90761904D01*
X162580952Y-90809523D01*
X163152380Y-91380952D01*
X163152380Y-90761904D01*
X122352380Y-73752380D02*
X122019047Y-73276190D01*
X121780952Y-73752380D02*
X121780952Y-72752380D01*
X122161904Y-72752380D01*
X122257142Y-72800000D01*
X122304761Y-72847619D01*
X122352380Y-72942857D01*
X122352380Y-73085714D01*
X122304761Y-73180952D01*
X122257142Y-73228571D01*
X122161904Y-73276190D01*
X121780952Y-73276190D01*
X122638095Y-72752380D02*
X122971428Y-73752380D01*
X123304761Y-72752380D01*
X124161904Y-73752380D02*
X123590476Y-73752380D01*
X123876190Y-73752380D02*
X123876190Y-72752380D01*
X123780952Y-72895238D01*
X123685714Y-72990476D01*
X123590476Y-73038095D01*
X124780952Y-72752380D02*
X124876190Y-72752380D01*
X124971428Y-72800000D01*
X125019047Y-72847619D01*
X125066666Y-72942857D01*
X125114285Y-73133333D01*
X125114285Y-73371428D01*
X125066666Y-73561904D01*
X125019047Y-73657142D01*
X124971428Y-73704761D01*
X124876190Y-73752380D01*
X124780952Y-73752380D01*
X124685714Y-73704761D01*
X124638095Y-73657142D01*
X124590476Y-73561904D01*
X124542857Y-73371428D01*
X124542857Y-73133333D01*
X124590476Y-72942857D01*
X124638095Y-72847619D01*
X124685714Y-72800000D01*
X124780952Y-72752380D01*
X126066666Y-73752380D02*
X125495238Y-73752380D01*
X125780952Y-73752380D02*
X125780952Y-72752380D01*
X125685714Y-72895238D01*
X125590476Y-72990476D01*
X125495238Y-73038095D01*
X122352380Y-93752380D02*
X122019047Y-93276190D01*
X121780952Y-93752380D02*
X121780952Y-92752380D01*
X122161904Y-92752380D01*
X122257142Y-92800000D01*
X122304761Y-92847619D01*
X122352380Y-92942857D01*
X122352380Y-93085714D01*
X122304761Y-93180952D01*
X122257142Y-93228571D01*
X122161904Y-93276190D01*
X121780952Y-93276190D01*
X122638095Y-92752380D02*
X122971428Y-93752380D01*
X123304761Y-92752380D01*
X124161904Y-93752380D02*
X123590476Y-93752380D01*
X123876190Y-93752380D02*
X123876190Y-92752380D01*
X123780952Y-92895238D01*
X123685714Y-92990476D01*
X123590476Y-93038095D01*
X124780952Y-92752380D02*
X124876190Y-92752380D01*
X124971428Y-92800000D01*
X125019047Y-92847619D01*
X125066666Y-92942857D01*
X125114285Y-93133333D01*
X125114285Y-93371428D01*
X125066666Y-93561904D01*
X125019047Y-93657142D01*
X124971428Y-93704761D01*
X124876190Y-93752380D01*
X124780952Y-93752380D01*
X124685714Y-93704761D01*
X124638095Y-93657142D01*
X124590476Y-93561904D01*
X124542857Y-93371428D01*
X124542857Y-93133333D01*
X124590476Y-92942857D01*
X124638095Y-92847619D01*
X124685714Y-92800000D01*
X124780952Y-92752380D01*
X125495238Y-92847619D02*
X125542857Y-92800000D01*
X125638095Y-92752380D01*
X125876190Y-92752380D01*
X125971428Y-92800000D01*
X126019047Y-92847619D01*
X126066666Y-92942857D01*
X126066666Y-93038095D01*
X126019047Y-93180952D01*
X125447619Y-93752380D01*
X126066666Y-93752380D01*
X139352380Y-73752380D02*
X139019047Y-73276190D01*
X138780952Y-73752380D02*
X138780952Y-72752380D01*
X139161904Y-72752380D01*
X139257142Y-72800000D01*
X139304761Y-72847619D01*
X139352380Y-72942857D01*
X139352380Y-73085714D01*
X139304761Y-73180952D01*
X139257142Y-73228571D01*
X139161904Y-73276190D01*
X138780952Y-73276190D01*
X139638095Y-72752380D02*
X139971428Y-73752380D01*
X140304761Y-72752380D01*
X141161904Y-73752380D02*
X140590476Y-73752380D01*
X140876190Y-73752380D02*
X140876190Y-72752380D01*
X140780952Y-72895238D01*
X140685714Y-72990476D01*
X140590476Y-73038095D01*
X141780952Y-72752380D02*
X141876190Y-72752380D01*
X141971428Y-72800000D01*
X142019047Y-72847619D01*
X142066666Y-72942857D01*
X142114285Y-73133333D01*
X142114285Y-73371428D01*
X142066666Y-73561904D01*
X142019047Y-73657142D01*
X141971428Y-73704761D01*
X141876190Y-73752380D01*
X141780952Y-73752380D01*
X141685714Y-73704761D01*
X141638095Y-73657142D01*
X141590476Y-73561904D01*
X141542857Y-73371428D01*
X141542857Y-73133333D01*
X141590476Y-72942857D01*
X141638095Y-72847619D01*
X141685714Y-72800000D01*
X141780952Y-72752380D01*
X142447619Y-72752380D02*
X143066666Y-72752380D01*
X142733333Y-73133333D01*
X142876190Y-73133333D01*
X142971428Y-73180952D01*
X143019047Y-73228571D01*
X143066666Y-73323809D01*
X143066666Y-73561904D01*
X143019047Y-73657142D01*
X142971428Y-73704761D01*
X142876190Y-73752380D01*
X142590476Y-73752380D01*
X142495238Y-73704761D01*
X142447619Y-73657142D01*
X139352380Y-93752380D02*
X139019047Y-93276190D01*
X138780952Y-93752380D02*
X138780952Y-92752380D01*
X139161904Y-92752380D01*
X139257142Y-92800000D01*
X139304761Y-92847619D01*
X139352380Y-92942857D01*
X139352380Y-93085714D01*
X139304761Y-93180952D01*
X139257142Y-93228571D01*
X139161904Y-93276190D01*
X138780952Y-93276190D01*
X139638095Y-92752380D02*
X139971428Y-93752380D01*
X140304761Y-92752380D01*
X141161904Y-93752380D02*
X140590476Y-93752380D01*
X140876190Y-93752380D02*
X140876190Y-92752380D01*
X140780952Y-92895238D01*
X140685714Y-92990476D01*
X140590476Y-93038095D01*
X141780952Y-92752380D02*
X141876190Y-92752380D01*
X141971428Y-92800000D01*
X142019047Y-92847619D01*
X142066666Y-92942857D01*
X142114285Y-93133333D01*
X142114285Y-93371428D01*
X142066666Y-93561904D01*
X142019047Y-93657142D01*
X141971428Y-93704761D01*
X141876190Y-93752380D01*
X141780952Y-93752380D01*
X141685714Y-93704761D01*
X141638095Y-93657142D01*
X141590476Y-93561904D01*
X141542857Y-93371428D01*
X141542857Y-93133333D01*
X141590476Y-92942857D01*
X141638095Y-92847619D01*
X141685714Y-92800000D01*
X141780952Y-92752380D01*
X142971428Y-93085714D02*
X142971428Y-93752380D01*
X142733333Y-92704761D02*
X142495238Y-93419047D01*
X143114285Y-93419047D01*
X156352380Y-73752380D02*
X156019047Y-73276190D01*
X155780952Y-73752380D02*
X155780952Y-72752380D01*
X156161904Y-72752380D01*
X156257142Y-72800000D01*
X156304761Y-72847619D01*
X156352380Y-72942857D01*
X156352380Y-73085714D01*
X156304761Y-73180952D01*
X156257142Y-73228571D01*
X156161904Y-73276190D01*
X155780952Y-73276190D01*
X156638095Y-72752380D02*
X156971428Y-73752380D01*
X157304761Y-72752380D01*
X158161904Y-73752380D02*
X157590476Y-73752380D01*
X157876190Y-73752380D02*
X157876190Y-72752380D01*
X157780952Y-72895238D01*
X157685714Y-72990476D01*
X157590476Y-73038095D01*
X158780952Y-72752380D02*
X158876190Y-72752380D01*
X158971428Y-72800000D01*
X159019047Y-72847619D01*
X159066666Y-72942857D01*
X159114285Y-73133333D01*
X159114285Y-73371428D01*
X159066666Y-73561904D01*
X159019047Y-73657142D01*
X158971428Y-73704761D01*
X158876190Y-73752380D01*
X158780952Y-73752380D01*
X158685714Y-73704761D01*
X158638095Y-73657142D01*
X158590476Y-73561904D01*
X158542857Y-73371428D01*
X158542857Y-73133333D01*
X158590476Y-72942857D01*
X158638095Y-72847619D01*
X158685714Y-72800000D01*
X158780952Y-72752380D01*
X160019047Y-72752380D02*
X159542857Y-72752380D01*
X159495238Y-73228571D01*
X159542857Y-73180952D01*
X159638095Y-73133333D01*
X159876190Y-73133333D01*
X159971428Y-73180952D01*
X160019047Y-73228571D01*
X160066666Y-73323809D01*
X160066666Y-73561904D01*
X160019047Y-73657142D01*
X159971428Y-73704761D01*
X159876190Y-73752380D01*
X159638095Y-73752380D01*
X159542857Y-73704761D01*
X159495238Y-73657142D01*
X156485714Y-96352380D02*
X156485714Y-97161904D01*
X156533333Y-97257142D01*
X156580952Y-97304761D01*
X156676190Y-97352380D01*
X156866666Y-97352380D01*
X156961904Y-97304761D01*
X157009523Y-97257142D01*
X157057142Y-97161904D01*
X157057142Y-96352380D01*
X158057142Y-97352380D02*
X157485714Y-97352380D01*
X157771428Y-97352380D02*
X157771428Y-96352380D01*
X157676190Y-96495238D01*
X157580952Y-96590476D01*
X157485714Y-96638095D01*
X158676190Y-96352380D02*
X158771428Y-96352380D01*
X158866666Y-96400000D01*
X158914285Y-96447619D01*
X158961904Y-96542857D01*
X159009523Y-96733333D01*
X159009523Y-96971428D01*
X158961904Y-97161904D01*
X158914285Y-97257142D01*
X158866666Y-97304761D01*
X158771428Y-97352380D01*
X158676190Y-97352380D01*
X158580952Y-97304761D01*
X158533333Y-97257142D01*
X158485714Y-97161904D01*
X158438095Y-96971428D01*
X158438095Y-96733333D01*
X158485714Y-96542857D01*
X158533333Y-96447619D01*
X158580952Y-96400000D01*
X158676190Y-96352380D01*
X159961904Y-97352380D02*
X159390476Y-97352380D01*
X159676190Y-97352380D02*
X159676190Y-96352380D01*
X159580952Y-96495238D01*
X159485714Y-96590476D01*
X159390476Y-96638095D01*
X156052380Y-104314285D02*
X156861904Y-104314285D01*
X156957142Y-104266666D01*
X157004761Y-104219047D01*
X157052380Y-104123809D01*
X157052380Y-103933333D01*
X157004761Y-103838095D01*
X156957142Y-103790476D01*
X156861904Y-103742857D01*
X156052380Y-103742857D01*
X157052380Y-102742857D02*
X157052380Y-103314285D01*
X157052380Y-103028571D02*
X156052380Y-103028571D01*
X156195238Y-103123809D01*
X156290476Y-103219047D01*
X156338095Y-103314285D01*
X156052380Y-102123809D02*
X156052380Y-102028571D01*
X156100000Y-101933333D01*
X156147619Y-101885714D01*
X156242857Y-101838095D01*
X156433333Y-101790476D01*
X156671428Y-101790476D01*
X156861904Y-101838095D01*
X156957142Y-101885714D01*
X157004761Y-101933333D01*
X157052380Y-102028571D01*
X157052380Y-102123809D01*
X157004761Y-102219047D01*
X156957142Y-102266666D01*
X156861904Y-102314285D01*
X156671428Y-102361904D01*
X156433333Y-102361904D01*
X156242857Y-102314285D01*
X156147619Y-102266666D01*
X156100000Y-102219047D01*
X156052380Y-102123809D01*
X156147619Y-101409523D02*
X156100000Y-101361904D01*
X156052380Y-101266666D01*
X156052380Y-101028571D01*
X156100000Y-100933333D01*
X156147619Y-100885714D01*
X156242857Y-100838095D01*
X156338095Y-100838095D01*
X156480952Y-100885714D01*
X157052380Y-101457142D01*
X157052380Y-100838095D01*
M02*
