G04 #@! TF.GenerationSoftware,KiCad,Pcbnew,(5.0.0-rc2-dev-668-g07e7340a9)*
G04 #@! TF.CreationDate,2019-04-05T10:17:21-04:00*
G04 #@! TF.ProjectId,MagLev,4D61674C65762E6B696361645F706362,rev?*
G04 #@! TF.SameCoordinates,Original*
G04 #@! TF.FileFunction,Copper,L1,Top,Signal*
G04 #@! TF.FilePolarity,Positive*
%FSLAX46Y46*%
G04 Gerber Fmt 4.6, Leading zero omitted, Abs format (unit mm)*
G04 Created by KiCad (PCBNEW (5.0.0-rc2-dev-668-g07e7340a9)) date 04/05/19 10:17:21*
%MOMM*%
%LPD*%
G01*
G04 APERTURE LIST*
%ADD10O,1.600000X1.600000*%
%ADD11R,1.600000X1.600000*%
%ADD12R,1.700000X1.700000*%
%ADD13O,1.700000X1.700000*%
%ADD14R,2.400000X2.400000*%
%ADD15C,2.400000*%
%ADD16R,0.900000X0.500000*%
%ADD17R,2.800000X3.800000*%
%ADD18C,2.000000*%
%ADD19R,2.000000X2.000000*%
%ADD20R,1.060000X0.650000*%
%ADD21R,0.600000X1.550000*%
%ADD22R,1.175000X1.175000*%
%ADD23C,0.800000*%
%ADD24C,0.250000*%
%ADD25C,1.000000*%
%ADD26C,0.254000*%
G04 APERTURE END LIST*
D10*
X162085000Y-115927500D03*
X164625000Y-115927500D03*
X125005000Y-115927500D03*
X164625000Y-67667500D03*
X127545000Y-115927500D03*
X162085000Y-67667500D03*
X130085000Y-115927500D03*
X159545000Y-67667500D03*
X132625000Y-115927500D03*
X157005000Y-67667500D03*
X135165000Y-115927500D03*
X154465000Y-67667500D03*
X137705000Y-115927500D03*
X151925000Y-67667500D03*
X140245000Y-115927500D03*
X146845000Y-67667500D03*
X142785000Y-115927500D03*
X144305000Y-67667500D03*
X146845000Y-115927500D03*
X141765000Y-67667500D03*
X149385000Y-115927500D03*
X139225000Y-67667500D03*
X151925000Y-115927500D03*
X136685000Y-67667500D03*
X154465000Y-115927500D03*
X134145000Y-67667500D03*
X157005000Y-115927500D03*
X131605000Y-67667500D03*
X159545000Y-115927500D03*
D11*
X129065000Y-67667500D03*
D10*
X122465000Y-115927500D03*
X119925000Y-115927500D03*
D12*
X167200000Y-90000000D03*
D13*
X167200000Y-92540000D03*
X167200000Y-95080000D03*
D14*
X104200000Y-85000000D03*
D15*
X104200000Y-81500000D03*
X162900000Y-108300000D03*
D14*
X162900000Y-104800000D03*
D16*
X161200000Y-94250000D03*
X161200000Y-95750000D03*
X161200000Y-92750000D03*
X161200000Y-91250000D03*
D17*
X129150000Y-78675000D03*
X118750000Y-78675000D03*
D18*
X127700000Y-87000000D03*
X123950000Y-87000000D03*
D19*
X120200000Y-87000000D03*
D17*
X129150000Y-98675000D03*
X118750000Y-98675000D03*
D18*
X127700000Y-107000000D03*
X123950000Y-107000000D03*
D19*
X120200000Y-107000000D03*
X137200000Y-87000000D03*
D18*
X140950000Y-87000000D03*
X144700000Y-87000000D03*
D17*
X135750000Y-78675000D03*
X146150000Y-78675000D03*
D19*
X137200000Y-107000000D03*
D18*
X140950000Y-107000000D03*
X144700000Y-107000000D03*
D17*
X135750000Y-98675000D03*
X146150000Y-98675000D03*
X163150000Y-78675000D03*
X152750000Y-78675000D03*
D18*
X161700000Y-87000000D03*
X157950000Y-87000000D03*
D19*
X154200000Y-87000000D03*
D20*
X159300000Y-94950000D03*
X159300000Y-94000000D03*
X159300000Y-93050000D03*
X157100000Y-93050000D03*
X157100000Y-94950000D03*
D21*
X155005000Y-99900000D03*
X153735000Y-99900000D03*
X152465000Y-99900000D03*
X151195000Y-99900000D03*
X151195000Y-105300000D03*
X152465000Y-105300000D03*
X153735000Y-105300000D03*
X155005000Y-105300000D03*
D22*
X152512500Y-103187500D03*
X153687500Y-103187500D03*
X152512500Y-102012500D03*
X153687500Y-102012500D03*
D13*
X142760000Y-113000000D03*
X140220000Y-113000000D03*
X137680000Y-113000000D03*
X135140000Y-113000000D03*
X132600000Y-113000000D03*
X130060000Y-113000000D03*
X127520000Y-113000000D03*
X124980000Y-113000000D03*
X122440000Y-113000000D03*
D12*
X119900000Y-113000000D03*
X146900000Y-113000000D03*
D13*
X149440000Y-113000000D03*
X151980000Y-113000000D03*
X154520000Y-113000000D03*
X157060000Y-113000000D03*
X159600000Y-113000000D03*
X162140000Y-113000000D03*
X164680000Y-113000000D03*
X146880000Y-70400000D03*
X144340000Y-70400000D03*
X141800000Y-70400000D03*
X139260000Y-70400000D03*
X136720000Y-70400000D03*
X134180000Y-70400000D03*
X131640000Y-70400000D03*
D12*
X129100000Y-70400000D03*
D13*
X164600000Y-70400000D03*
X162060000Y-70400000D03*
X159520000Y-70400000D03*
X156980000Y-70400000D03*
X154440000Y-70400000D03*
D12*
X151900000Y-70400000D03*
D23*
X154936300Y-102001700D03*
X157999335Y-94036774D03*
X157000000Y-94000000D03*
X155300000Y-95600000D03*
X151027100Y-101868700D03*
X159575500Y-91399800D03*
D24*
X155005000Y-101000300D02*
X154936300Y-101069000D01*
X154936300Y-101069000D02*
X154936300Y-102001700D01*
X154936300Y-102001700D02*
X154611100Y-102001700D01*
X154611100Y-102001700D02*
X154600300Y-102012500D01*
X153687500Y-102012500D02*
X154600300Y-102012500D01*
X155005000Y-99900000D02*
X155005000Y-101000300D01*
X153687500Y-103187500D02*
X153425300Y-103187500D01*
X153687500Y-103187500D02*
X153687500Y-104152200D01*
X153687500Y-104152200D02*
X153735000Y-104199700D01*
X152512500Y-103187500D02*
X153425300Y-103187500D01*
X153735000Y-105300000D02*
X153735000Y-104199700D01*
X153687500Y-103187500D02*
X153687500Y-102012500D01*
X152512500Y-102012500D02*
X153687500Y-102012500D01*
X158036109Y-94000000D02*
X157999335Y-94036774D01*
X159300000Y-94000000D02*
X158036109Y-94000000D01*
X157100000Y-93050000D02*
X156244700Y-93050000D01*
X156980000Y-70400000D02*
X156980000Y-71575300D01*
X156980000Y-71575300D02*
X156244700Y-72310600D01*
X156244700Y-72310600D02*
X156244700Y-93050000D01*
X154465000Y-67667500D02*
X155590300Y-67667500D01*
X155590300Y-67667500D02*
X155590300Y-67948900D01*
X155590300Y-67948900D02*
X156434200Y-68792800D01*
X156434200Y-68792800D02*
X157036900Y-68792800D01*
X157036900Y-68792800D02*
X158165800Y-69921700D01*
X158165800Y-69921700D02*
X158165800Y-79987100D01*
X158165800Y-79987100D02*
X166024700Y-87846000D01*
X166024700Y-87846000D02*
X166024700Y-92540000D01*
X167200000Y-92540000D02*
X166024700Y-92540000D01*
X161200000Y-95750000D02*
X162814700Y-95750000D01*
X162814700Y-95750000D02*
X166024700Y-92540000D01*
X151900000Y-70400000D02*
X151900000Y-71575300D01*
X159300000Y-94950000D02*
X158444700Y-94950000D01*
X158444700Y-94950000D02*
X157794400Y-95600300D01*
X157794400Y-95600300D02*
X156427300Y-95600300D01*
X156427300Y-95600300D02*
X155794300Y-94967300D01*
X155794300Y-94967300D02*
X155794300Y-75469600D01*
X155794300Y-75469600D02*
X151900000Y-71575300D01*
D25*
X146845000Y-67667500D02*
X145345000Y-66167500D01*
X145345000Y-66167500D02*
X125233000Y-66167500D01*
X125233000Y-66167500D02*
X106400000Y-85000000D01*
X106400000Y-85000000D02*
X104200000Y-85000000D01*
X146845000Y-67667500D02*
X146845000Y-70365000D01*
X146845000Y-70365000D02*
X146880000Y-70400000D01*
X151195000Y-105300000D02*
X151195000Y-104825000D01*
X151195000Y-104825000D02*
X149895000Y-103525000D01*
X149895000Y-103525000D02*
X149895000Y-73415000D01*
X149895000Y-73415000D02*
X146880000Y-70400000D01*
X139225000Y-70365000D02*
X139260000Y-70400000D01*
X139225000Y-67667500D02*
X139225000Y-70365000D01*
D24*
X138450000Y-87000000D02*
X137200000Y-87000000D01*
X139260000Y-86190000D02*
X138450000Y-87000000D01*
X139260000Y-70400000D02*
X139260000Y-86190000D01*
X157100000Y-94100000D02*
X157000000Y-94000000D01*
X157100000Y-94950000D02*
X157100000Y-94100000D01*
X154200000Y-94500000D02*
X154200000Y-87000000D01*
X155300000Y-95600000D02*
X154200000Y-94500000D01*
X153735000Y-99900000D02*
X153735000Y-101000300D01*
X151027100Y-101868700D02*
X151027100Y-101772400D01*
X151027100Y-101772400D02*
X151799200Y-101000300D01*
X151799200Y-101000300D02*
X153735000Y-101000300D01*
X151980000Y-113000000D02*
X151980000Y-114175300D01*
X151980000Y-114175300D02*
X151925000Y-114230300D01*
X151925000Y-114230300D02*
X151925000Y-115927500D01*
X152465000Y-99900000D02*
X152465000Y-98799700D01*
X157060000Y-113000000D02*
X158235300Y-113000000D01*
X158235300Y-113000000D02*
X158235300Y-112632600D01*
X158235300Y-112632600D02*
X159043200Y-111824700D01*
X159043200Y-111824700D02*
X161544900Y-111824700D01*
X161544900Y-111824700D02*
X164425400Y-108944200D01*
X164425400Y-108944200D02*
X164425400Y-103465300D01*
X164425400Y-103465300D02*
X159759800Y-98799700D01*
X159759800Y-98799700D02*
X152465000Y-98799700D01*
D25*
X162900000Y-104800000D02*
X155505000Y-104800000D01*
X155505000Y-104800000D02*
X155005000Y-105300000D01*
X152465000Y-105300000D02*
X152465000Y-106365000D01*
X152465000Y-106365000D02*
X154400000Y-108300000D01*
X154400000Y-108300000D02*
X162900000Y-108300000D01*
D24*
X161200000Y-94250000D02*
X161200000Y-93674700D01*
X160155300Y-93050000D02*
X160780000Y-93674700D01*
X160780000Y-93674700D02*
X161200000Y-93674700D01*
X160042700Y-93050000D02*
X160155300Y-93050000D01*
X159300000Y-93050000D02*
X160042700Y-93050000D01*
X161200000Y-92750000D02*
X160424700Y-92750000D01*
X160155300Y-93050000D02*
X160424700Y-92780600D01*
X160424700Y-92780600D02*
X160424700Y-92750000D01*
X161200000Y-91250000D02*
X160424700Y-91250000D01*
X159575500Y-91399800D02*
X160274900Y-91399800D01*
X160274900Y-91399800D02*
X160424700Y-91250000D01*
X151195000Y-99900000D02*
X151195000Y-98799700D01*
X154520000Y-113000000D02*
X155695300Y-113000000D01*
X155695300Y-113000000D02*
X155695300Y-113367300D01*
X155695300Y-113367300D02*
X156543700Y-114215700D01*
X156543700Y-114215700D02*
X162614300Y-114215700D01*
X162614300Y-114215700D02*
X163410000Y-113420000D01*
X163410000Y-113420000D02*
X163410000Y-112011600D01*
X163410000Y-112011600D02*
X164917900Y-110503700D01*
X164917900Y-110503700D02*
X164917900Y-103288900D01*
X164917900Y-103288900D02*
X159967800Y-98338800D01*
X159967800Y-98338800D02*
X151655900Y-98338800D01*
X151655900Y-98338800D02*
X151195000Y-98799700D01*
D26*
G36*
X106038720Y-83756160D02*
X105998157Y-83552235D01*
X105857809Y-83342191D01*
X105647765Y-83201843D01*
X105400000Y-83152560D01*
X105005453Y-83152560D01*
X105239444Y-83055638D01*
X105755638Y-82539444D01*
X106035000Y-81865004D01*
X106035000Y-81134996D01*
X105755638Y-80460556D01*
X105239444Y-79944362D01*
X104565004Y-79665000D01*
X103834996Y-79665000D01*
X103160556Y-79944362D01*
X102644362Y-80460556D01*
X102365000Y-81134996D01*
X102365000Y-81865004D01*
X102644362Y-82539444D01*
X103160556Y-83055638D01*
X103394547Y-83152560D01*
X103000000Y-83152560D01*
X102752235Y-83201843D01*
X102542191Y-83342191D01*
X102401843Y-83552235D01*
X102352560Y-83800000D01*
X102352560Y-86200000D01*
X102401843Y-86447765D01*
X102542191Y-86657809D01*
X102752235Y-86798157D01*
X103000000Y-86847440D01*
X105400000Y-86847440D01*
X105647765Y-86798157D01*
X105857809Y-86657809D01*
X105998157Y-86447765D01*
X106047440Y-86200000D01*
X106047440Y-86135000D01*
X106288210Y-86135000D01*
X106399985Y-86157235D01*
X106511776Y-86135000D01*
X106511783Y-86135000D01*
X106616997Y-86114072D01*
X106842840Y-86069152D01*
X106842846Y-86069148D01*
X106842855Y-86069146D01*
X107100474Y-85897010D01*
X107123511Y-85881618D01*
X107123512Y-85881617D01*
X107135375Y-85873690D01*
X118565000Y-85873690D01*
X118565000Y-86714250D01*
X118723750Y-86873000D01*
X120073000Y-86873000D01*
X120073000Y-85523750D01*
X120327000Y-85523750D01*
X120327000Y-86873000D01*
X121676250Y-86873000D01*
X121835000Y-86714250D01*
X121835000Y-86674778D01*
X122315000Y-86674778D01*
X122315000Y-87325222D01*
X122563914Y-87926153D01*
X123023847Y-88386086D01*
X123624778Y-88635000D01*
X124275222Y-88635000D01*
X124876153Y-88386086D01*
X125336086Y-87926153D01*
X125585000Y-87325222D01*
X125585000Y-86674778D01*
X126065000Y-86674778D01*
X126065000Y-87325222D01*
X126313914Y-87926153D01*
X126773847Y-88386086D01*
X127374778Y-88635000D01*
X128025222Y-88635000D01*
X128626153Y-88386086D01*
X129086086Y-87926153D01*
X129335000Y-87325222D01*
X129335000Y-87285750D01*
X135565000Y-87285750D01*
X135565000Y-88126310D01*
X135661673Y-88359699D01*
X135840302Y-88538327D01*
X136073691Y-88635000D01*
X136914250Y-88635000D01*
X137073000Y-88476250D01*
X137073000Y-87127000D01*
X137327000Y-87127000D01*
X137327000Y-88476250D01*
X137485750Y-88635000D01*
X138326309Y-88635000D01*
X138559698Y-88538327D01*
X138738327Y-88359699D01*
X138835000Y-88126310D01*
X138835000Y-87285750D01*
X138676250Y-87127000D01*
X137327000Y-87127000D01*
X137073000Y-87127000D01*
X135723750Y-87127000D01*
X135565000Y-87285750D01*
X129335000Y-87285750D01*
X129335000Y-86674778D01*
X129086086Y-86073847D01*
X128885929Y-85873690D01*
X135565000Y-85873690D01*
X135565000Y-86714250D01*
X135723750Y-86873000D01*
X137073000Y-86873000D01*
X137073000Y-85523750D01*
X137327000Y-85523750D01*
X137327000Y-86873000D01*
X138676250Y-86873000D01*
X138835000Y-86714250D01*
X138835000Y-86674778D01*
X139315000Y-86674778D01*
X139315000Y-87325222D01*
X139563914Y-87926153D01*
X140023847Y-88386086D01*
X140624778Y-88635000D01*
X141275222Y-88635000D01*
X141876153Y-88386086D01*
X142336086Y-87926153D01*
X142585000Y-87325222D01*
X142585000Y-86674778D01*
X143065000Y-86674778D01*
X143065000Y-87325222D01*
X143313914Y-87926153D01*
X143773847Y-88386086D01*
X144374778Y-88635000D01*
X145025222Y-88635000D01*
X145626153Y-88386086D01*
X146086086Y-87926153D01*
X146335000Y-87325222D01*
X146335000Y-86674778D01*
X146086086Y-86073847D01*
X145626153Y-85613914D01*
X145025222Y-85365000D01*
X144374778Y-85365000D01*
X143773847Y-85613914D01*
X143313914Y-86073847D01*
X143065000Y-86674778D01*
X142585000Y-86674778D01*
X142336086Y-86073847D01*
X141876153Y-85613914D01*
X141275222Y-85365000D01*
X140624778Y-85365000D01*
X140023847Y-85613914D01*
X139563914Y-86073847D01*
X139315000Y-86674778D01*
X138835000Y-86674778D01*
X138835000Y-85873690D01*
X138738327Y-85640301D01*
X138559698Y-85461673D01*
X138326309Y-85365000D01*
X137485750Y-85365000D01*
X137327000Y-85523750D01*
X137073000Y-85523750D01*
X136914250Y-85365000D01*
X136073691Y-85365000D01*
X135840302Y-85461673D01*
X135661673Y-85640301D01*
X135565000Y-85873690D01*
X128885929Y-85873690D01*
X128626153Y-85613914D01*
X128025222Y-85365000D01*
X127374778Y-85365000D01*
X126773847Y-85613914D01*
X126313914Y-86073847D01*
X126065000Y-86674778D01*
X125585000Y-86674778D01*
X125336086Y-86073847D01*
X124876153Y-85613914D01*
X124275222Y-85365000D01*
X123624778Y-85365000D01*
X123023847Y-85613914D01*
X122563914Y-86073847D01*
X122315000Y-86674778D01*
X121835000Y-86674778D01*
X121835000Y-85873690D01*
X121738327Y-85640301D01*
X121559698Y-85461673D01*
X121326309Y-85365000D01*
X120485750Y-85365000D01*
X120327000Y-85523750D01*
X120073000Y-85523750D01*
X119914250Y-85365000D01*
X119073691Y-85365000D01*
X118840302Y-85461673D01*
X118661673Y-85640301D01*
X118565000Y-85873690D01*
X107135375Y-85873690D01*
X107218289Y-85818289D01*
X107281608Y-85723525D01*
X116230371Y-76775000D01*
X116702560Y-76775000D01*
X116702560Y-80575000D01*
X116751843Y-80822765D01*
X116892191Y-81032809D01*
X117102235Y-81173157D01*
X117350000Y-81222440D01*
X120150000Y-81222440D01*
X120397765Y-81173157D01*
X120607809Y-81032809D01*
X120748157Y-80822765D01*
X120797440Y-80575000D01*
X120797440Y-76775000D01*
X127102560Y-76775000D01*
X127102560Y-80575000D01*
X127151843Y-80822765D01*
X127292191Y-81032809D01*
X127502235Y-81173157D01*
X127750000Y-81222440D01*
X130550000Y-81222440D01*
X130797765Y-81173157D01*
X131007809Y-81032809D01*
X131148157Y-80822765D01*
X131197440Y-80575000D01*
X131197440Y-76775000D01*
X133702560Y-76775000D01*
X133702560Y-80575000D01*
X133751843Y-80822765D01*
X133892191Y-81032809D01*
X134102235Y-81173157D01*
X134350000Y-81222440D01*
X137150000Y-81222440D01*
X137397765Y-81173157D01*
X137607809Y-81032809D01*
X137748157Y-80822765D01*
X137797440Y-80575000D01*
X137797440Y-76775000D01*
X144102560Y-76775000D01*
X144102560Y-80575000D01*
X144151843Y-80822765D01*
X144292191Y-81032809D01*
X144502235Y-81173157D01*
X144750000Y-81222440D01*
X147550000Y-81222440D01*
X147797765Y-81173157D01*
X148007809Y-81032809D01*
X148148157Y-80822765D01*
X148197440Y-80575000D01*
X148197440Y-76775000D01*
X148148157Y-76527235D01*
X148007809Y-76317191D01*
X147797765Y-76176843D01*
X147550000Y-76127560D01*
X144750000Y-76127560D01*
X144502235Y-76176843D01*
X144292191Y-76317191D01*
X144151843Y-76527235D01*
X144102560Y-76775000D01*
X137797440Y-76775000D01*
X137748157Y-76527235D01*
X137607809Y-76317191D01*
X137397765Y-76176843D01*
X137150000Y-76127560D01*
X134350000Y-76127560D01*
X134102235Y-76176843D01*
X133892191Y-76317191D01*
X133751843Y-76527235D01*
X133702560Y-76775000D01*
X131197440Y-76775000D01*
X131148157Y-76527235D01*
X131007809Y-76317191D01*
X130797765Y-76176843D01*
X130550000Y-76127560D01*
X127750000Y-76127560D01*
X127502235Y-76176843D01*
X127292191Y-76317191D01*
X127151843Y-76527235D01*
X127102560Y-76775000D01*
X120797440Y-76775000D01*
X120748157Y-76527235D01*
X120607809Y-76317191D01*
X120397765Y-76176843D01*
X120150000Y-76127560D01*
X117350000Y-76127560D01*
X117102235Y-76176843D01*
X116892191Y-76317191D01*
X116751843Y-76527235D01*
X116702560Y-76775000D01*
X116230371Y-76775000D01*
X125703123Y-67302500D01*
X127617560Y-67302500D01*
X127617560Y-68467500D01*
X127666843Y-68715265D01*
X127807191Y-68925309D01*
X127924568Y-69003739D01*
X127792191Y-69092191D01*
X127651843Y-69302235D01*
X127602560Y-69550000D01*
X127602560Y-71250000D01*
X127651843Y-71497765D01*
X127792191Y-71707809D01*
X128002235Y-71848157D01*
X128250000Y-71897440D01*
X129950000Y-71897440D01*
X130197765Y-71848157D01*
X130407809Y-71707809D01*
X130548157Y-71497765D01*
X130557184Y-71452381D01*
X130569375Y-71470625D01*
X131060582Y-71798839D01*
X131493744Y-71885000D01*
X131786256Y-71885000D01*
X132219418Y-71798839D01*
X132710625Y-71470625D01*
X132910000Y-71172239D01*
X133109375Y-71470625D01*
X133600582Y-71798839D01*
X134033744Y-71885000D01*
X134326256Y-71885000D01*
X134759418Y-71798839D01*
X135250625Y-71470625D01*
X135450000Y-71172239D01*
X135649375Y-71470625D01*
X136140582Y-71798839D01*
X136573744Y-71885000D01*
X136866256Y-71885000D01*
X137299418Y-71798839D01*
X137790625Y-71470625D01*
X138003843Y-71151522D01*
X138064817Y-71281358D01*
X138493076Y-71671645D01*
X138903110Y-71841476D01*
X139133000Y-71720155D01*
X139133000Y-70527000D01*
X139113000Y-70527000D01*
X139113000Y-70273000D01*
X139133000Y-70273000D01*
X139133000Y-69079845D01*
X138982918Y-69000641D01*
X139098000Y-68937415D01*
X139098000Y-67794500D01*
X139078000Y-67794500D01*
X139078000Y-67540500D01*
X139098000Y-67540500D01*
X139098000Y-67520500D01*
X139352000Y-67520500D01*
X139352000Y-67540500D01*
X139372000Y-67540500D01*
X139372000Y-67794500D01*
X139352000Y-67794500D01*
X139352000Y-68937415D01*
X139501378Y-69019484D01*
X139387000Y-69079845D01*
X139387000Y-70273000D01*
X139407000Y-70273000D01*
X139407000Y-70527000D01*
X139387000Y-70527000D01*
X139387000Y-71720155D01*
X139616890Y-71841476D01*
X140026924Y-71671645D01*
X140455183Y-71281358D01*
X140516157Y-71151522D01*
X140729375Y-71470625D01*
X141220582Y-71798839D01*
X141653744Y-71885000D01*
X141946256Y-71885000D01*
X142379418Y-71798839D01*
X142870625Y-71470625D01*
X143070000Y-71172239D01*
X143269375Y-71470625D01*
X143760582Y-71798839D01*
X144193744Y-71885000D01*
X144486256Y-71885000D01*
X144919418Y-71798839D01*
X145410625Y-71470625D01*
X145610000Y-71172239D01*
X145809375Y-71470625D01*
X146300582Y-71798839D01*
X146733744Y-71885000D01*
X146759869Y-71885000D01*
X148760001Y-73885133D01*
X148760000Y-103413217D01*
X148737765Y-103525000D01*
X148778712Y-103730854D01*
X148825854Y-103967854D01*
X149076711Y-104343289D01*
X149171482Y-104406613D01*
X150060000Y-105295132D01*
X150060000Y-105411782D01*
X150125854Y-105742854D01*
X150247560Y-105925000D01*
X150247560Y-106075000D01*
X150296843Y-106322765D01*
X150437191Y-106532809D01*
X150647235Y-106673157D01*
X150895000Y-106722440D01*
X151378864Y-106722440D01*
X151395854Y-106807855D01*
X151646712Y-107183289D01*
X151741480Y-107246611D01*
X153518389Y-109023521D01*
X153581711Y-109118289D01*
X153957145Y-109369146D01*
X154288217Y-109435000D01*
X154399999Y-109457235D01*
X154511781Y-109435000D01*
X161439918Y-109435000D01*
X161860556Y-109855638D01*
X162269691Y-110025107D01*
X161230099Y-111064700D01*
X159118046Y-111064700D01*
X159043199Y-111049812D01*
X158968352Y-111064700D01*
X158968348Y-111064700D01*
X158746663Y-111108796D01*
X158495271Y-111276771D01*
X158452871Y-111340227D01*
X157970629Y-111822469D01*
X157639418Y-111601161D01*
X157206256Y-111515000D01*
X156913744Y-111515000D01*
X156480582Y-111601161D01*
X155989375Y-111929375D01*
X155790000Y-112227761D01*
X155590625Y-111929375D01*
X155099418Y-111601161D01*
X154666256Y-111515000D01*
X154373744Y-111515000D01*
X153940582Y-111601161D01*
X153449375Y-111929375D01*
X153250000Y-112227761D01*
X153050625Y-111929375D01*
X152559418Y-111601161D01*
X152126256Y-111515000D01*
X151833744Y-111515000D01*
X151400582Y-111601161D01*
X150909375Y-111929375D01*
X150710000Y-112227761D01*
X150510625Y-111929375D01*
X150019418Y-111601161D01*
X149586256Y-111515000D01*
X149293744Y-111515000D01*
X148860582Y-111601161D01*
X148369375Y-111929375D01*
X148357184Y-111947619D01*
X148348157Y-111902235D01*
X148207809Y-111692191D01*
X147997765Y-111551843D01*
X147750000Y-111502560D01*
X146050000Y-111502560D01*
X145802235Y-111551843D01*
X145592191Y-111692191D01*
X145451843Y-111902235D01*
X145402560Y-112150000D01*
X145402560Y-113850000D01*
X145451843Y-114097765D01*
X145592191Y-114307809D01*
X145802235Y-114448157D01*
X146050000Y-114497440D01*
X146678832Y-114497440D01*
X146285091Y-114575760D01*
X145810423Y-114892923D01*
X145493260Y-115367591D01*
X145381887Y-115927500D01*
X145493260Y-116487409D01*
X145810423Y-116962077D01*
X146285091Y-117279240D01*
X146703667Y-117362500D01*
X146986333Y-117362500D01*
X147404909Y-117279240D01*
X147879577Y-116962077D01*
X148115000Y-116609742D01*
X148350423Y-116962077D01*
X148825091Y-117279240D01*
X149243667Y-117362500D01*
X149526333Y-117362500D01*
X149944909Y-117279240D01*
X150419577Y-116962077D01*
X150655000Y-116609742D01*
X150890423Y-116962077D01*
X151365091Y-117279240D01*
X151783667Y-117362500D01*
X152066333Y-117362500D01*
X152484909Y-117279240D01*
X152959577Y-116962077D01*
X153195000Y-116609742D01*
X153430423Y-116962077D01*
X153905091Y-117279240D01*
X154323667Y-117362500D01*
X154606333Y-117362500D01*
X155024909Y-117279240D01*
X155499577Y-116962077D01*
X155735000Y-116609742D01*
X155970423Y-116962077D01*
X156445091Y-117279240D01*
X156863667Y-117362500D01*
X157146333Y-117362500D01*
X157564909Y-117279240D01*
X158039577Y-116962077D01*
X158275000Y-116609742D01*
X158510423Y-116962077D01*
X158985091Y-117279240D01*
X159403667Y-117362500D01*
X159686333Y-117362500D01*
X160104909Y-117279240D01*
X160579577Y-116962077D01*
X160815000Y-116609742D01*
X161050423Y-116962077D01*
X161525091Y-117279240D01*
X161943667Y-117362500D01*
X162226333Y-117362500D01*
X162644909Y-117279240D01*
X163119577Y-116962077D01*
X163355000Y-116609742D01*
X163590423Y-116962077D01*
X164065091Y-117279240D01*
X164483667Y-117362500D01*
X164766333Y-117362500D01*
X165184909Y-117279240D01*
X165659577Y-116962077D01*
X165976740Y-116487409D01*
X166088113Y-115927500D01*
X165976740Y-115367591D01*
X165659577Y-114892923D01*
X165184909Y-114575760D01*
X164766333Y-114492500D01*
X164483667Y-114492500D01*
X164065091Y-114575760D01*
X163590423Y-114892923D01*
X163355000Y-115245258D01*
X163119577Y-114892923D01*
X163044152Y-114842526D01*
X163162229Y-114763629D01*
X163204631Y-114700170D01*
X163744134Y-114160668D01*
X164100582Y-114398839D01*
X164533744Y-114485000D01*
X164826256Y-114485000D01*
X165259418Y-114398839D01*
X165750625Y-114070625D01*
X166078839Y-113579418D01*
X166194092Y-113000000D01*
X166078839Y-112420582D01*
X165750625Y-111929375D01*
X165259418Y-111601161D01*
X164955661Y-111540740D01*
X165402373Y-111094029D01*
X165465829Y-111051629D01*
X165633804Y-110800237D01*
X165677900Y-110578552D01*
X165677900Y-110578548D01*
X165692788Y-110503700D01*
X165677900Y-110428852D01*
X165677900Y-103363748D01*
X165692788Y-103288900D01*
X165677900Y-103214052D01*
X165677900Y-103214048D01*
X165633804Y-102992363D01*
X165465829Y-102740971D01*
X165402373Y-102698571D01*
X163087961Y-100384159D01*
X165640000Y-100384159D01*
X165640000Y-100990841D01*
X165872167Y-101551343D01*
X166301157Y-101980333D01*
X166861659Y-102212500D01*
X167468341Y-102212500D01*
X168028843Y-101980333D01*
X168457833Y-101551343D01*
X168690000Y-100990841D01*
X168690000Y-100384159D01*
X168457833Y-99823657D01*
X168028843Y-99394667D01*
X167468341Y-99162500D01*
X166861659Y-99162500D01*
X166301157Y-99394667D01*
X165872167Y-99823657D01*
X165640000Y-100384159D01*
X163087961Y-100384159D01*
X160558131Y-97854330D01*
X160515729Y-97790871D01*
X160264337Y-97622896D01*
X160042652Y-97578800D01*
X160042647Y-97578800D01*
X159967800Y-97563912D01*
X159892953Y-97578800D01*
X151730746Y-97578800D01*
X151655899Y-97563912D01*
X151581052Y-97578800D01*
X151581048Y-97578800D01*
X151359363Y-97622896D01*
X151107971Y-97790871D01*
X151065569Y-97854330D01*
X151030000Y-97889899D01*
X151030000Y-87285750D01*
X152565000Y-87285750D01*
X152565000Y-88126310D01*
X152661673Y-88359699D01*
X152840302Y-88538327D01*
X153073691Y-88635000D01*
X153914250Y-88635000D01*
X154073000Y-88476250D01*
X154073000Y-87127000D01*
X152723750Y-87127000D01*
X152565000Y-87285750D01*
X151030000Y-87285750D01*
X151030000Y-85873690D01*
X152565000Y-85873690D01*
X152565000Y-86714250D01*
X152723750Y-86873000D01*
X154073000Y-86873000D01*
X154073000Y-85523750D01*
X153914250Y-85365000D01*
X153073691Y-85365000D01*
X152840302Y-85461673D01*
X152661673Y-85640301D01*
X152565000Y-85873690D01*
X151030000Y-85873690D01*
X151030000Y-81124891D01*
X151102235Y-81173157D01*
X151350000Y-81222440D01*
X154150000Y-81222440D01*
X154397765Y-81173157D01*
X154607809Y-81032809D01*
X154748157Y-80822765D01*
X154797440Y-80575000D01*
X154797440Y-76775000D01*
X154748157Y-76527235D01*
X154607809Y-76317191D01*
X154397765Y-76176843D01*
X154150000Y-76127560D01*
X151350000Y-76127560D01*
X151102235Y-76176843D01*
X151030000Y-76225109D01*
X151030000Y-73526783D01*
X151052235Y-73415000D01*
X150964146Y-72972145D01*
X150888230Y-72858529D01*
X150713289Y-72596711D01*
X150618521Y-72533389D01*
X148371487Y-70286356D01*
X148278839Y-69820582D01*
X148098042Y-69550000D01*
X150402560Y-69550000D01*
X150402560Y-71250000D01*
X150451843Y-71497765D01*
X150592191Y-71707809D01*
X150802235Y-71848157D01*
X151050000Y-71897440D01*
X151201204Y-71897440D01*
X151279130Y-72014063D01*
X151352072Y-72123229D01*
X151415528Y-72165629D01*
X155034301Y-75784403D01*
X155034300Y-85365000D01*
X154485750Y-85365000D01*
X154327000Y-85523750D01*
X154327000Y-86873000D01*
X154347000Y-86873000D01*
X154347000Y-87127000D01*
X154327000Y-87127000D01*
X154327000Y-88476250D01*
X154485750Y-88635000D01*
X155034300Y-88635000D01*
X155034300Y-94892453D01*
X155019412Y-94967300D01*
X155034300Y-95042147D01*
X155034300Y-95042151D01*
X155078396Y-95263836D01*
X155246371Y-95515229D01*
X155309830Y-95557631D01*
X155836971Y-96084773D01*
X155879371Y-96148229D01*
X156130763Y-96316204D01*
X156352448Y-96360300D01*
X156352452Y-96360300D01*
X156427299Y-96375188D01*
X156502146Y-96360300D01*
X157719553Y-96360300D01*
X157794400Y-96375188D01*
X157869247Y-96360300D01*
X157869252Y-96360300D01*
X158090937Y-96316204D01*
X158342329Y-96148229D01*
X158384731Y-96084770D01*
X158584049Y-95885452D01*
X158770000Y-95922440D01*
X159830000Y-95922440D01*
X160077765Y-95873157D01*
X160102560Y-95856589D01*
X160102560Y-96000000D01*
X160151843Y-96247765D01*
X160292191Y-96457809D01*
X160502235Y-96598157D01*
X160750000Y-96647440D01*
X161650000Y-96647440D01*
X161897765Y-96598157D01*
X162029700Y-96510000D01*
X162739853Y-96510000D01*
X162814700Y-96524888D01*
X162889547Y-96510000D01*
X162889552Y-96510000D01*
X163111237Y-96465904D01*
X163362629Y-96297929D01*
X163405031Y-96234470D01*
X164202611Y-95436890D01*
X165758524Y-95436890D01*
X165928355Y-95846924D01*
X166318642Y-96275183D01*
X166843108Y-96521486D01*
X167073000Y-96400819D01*
X167073000Y-95207000D01*
X167327000Y-95207000D01*
X167327000Y-96400819D01*
X167556892Y-96521486D01*
X168081358Y-96275183D01*
X168471645Y-95846924D01*
X168641476Y-95436890D01*
X168520155Y-95207000D01*
X167327000Y-95207000D01*
X167073000Y-95207000D01*
X165879845Y-95207000D01*
X165758524Y-95436890D01*
X164202611Y-95436890D01*
X166089121Y-93550381D01*
X166129375Y-93610625D01*
X166448478Y-93823843D01*
X166318642Y-93884817D01*
X165928355Y-94313076D01*
X165758524Y-94723110D01*
X165879845Y-94953000D01*
X167073000Y-94953000D01*
X167073000Y-94933000D01*
X167327000Y-94933000D01*
X167327000Y-94953000D01*
X168520155Y-94953000D01*
X168641476Y-94723110D01*
X168471645Y-94313076D01*
X168081358Y-93884817D01*
X167951522Y-93823843D01*
X168270625Y-93610625D01*
X168598839Y-93119418D01*
X168714092Y-92540000D01*
X168598839Y-91960582D01*
X168270625Y-91469375D01*
X168252381Y-91457184D01*
X168297765Y-91448157D01*
X168507809Y-91307809D01*
X168648157Y-91097765D01*
X168697440Y-90850000D01*
X168697440Y-89150000D01*
X168648157Y-88902235D01*
X168507809Y-88692191D01*
X168297765Y-88551843D01*
X168050000Y-88502560D01*
X166784700Y-88502560D01*
X166784700Y-87920847D01*
X166799588Y-87846000D01*
X166784700Y-87771153D01*
X166784700Y-87771148D01*
X166740604Y-87549463D01*
X166572629Y-87298071D01*
X166509173Y-87255671D01*
X158925800Y-79672299D01*
X158925800Y-76775000D01*
X161102560Y-76775000D01*
X161102560Y-80575000D01*
X161151843Y-80822765D01*
X161292191Y-81032809D01*
X161502235Y-81173157D01*
X161750000Y-81222440D01*
X164550000Y-81222440D01*
X164797765Y-81173157D01*
X165007809Y-81032809D01*
X165148157Y-80822765D01*
X165197440Y-80575000D01*
X165197440Y-76775000D01*
X165148157Y-76527235D01*
X165007809Y-76317191D01*
X164797765Y-76176843D01*
X164550000Y-76127560D01*
X161750000Y-76127560D01*
X161502235Y-76176843D01*
X161292191Y-76317191D01*
X161151843Y-76527235D01*
X161102560Y-76775000D01*
X158925800Y-76775000D01*
X158925800Y-72444159D01*
X165640000Y-72444159D01*
X165640000Y-73050841D01*
X165872167Y-73611343D01*
X166301157Y-74040333D01*
X166861659Y-74272500D01*
X167468341Y-74272500D01*
X168028843Y-74040333D01*
X168457833Y-73611343D01*
X168690000Y-73050841D01*
X168690000Y-72444159D01*
X168457833Y-71883657D01*
X168028843Y-71454667D01*
X167468341Y-71222500D01*
X166861659Y-71222500D01*
X166301157Y-71454667D01*
X165872167Y-71883657D01*
X165640000Y-72444159D01*
X158925800Y-72444159D01*
X158925800Y-71788962D01*
X158940582Y-71798839D01*
X159373744Y-71885000D01*
X159666256Y-71885000D01*
X160099418Y-71798839D01*
X160590625Y-71470625D01*
X160790000Y-71172239D01*
X160989375Y-71470625D01*
X161480582Y-71798839D01*
X161913744Y-71885000D01*
X162206256Y-71885000D01*
X162639418Y-71798839D01*
X163130625Y-71470625D01*
X163330000Y-71172239D01*
X163529375Y-71470625D01*
X164020582Y-71798839D01*
X164453744Y-71885000D01*
X164746256Y-71885000D01*
X165179418Y-71798839D01*
X165670625Y-71470625D01*
X165998839Y-70979418D01*
X166114092Y-70400000D01*
X165998839Y-69820582D01*
X165670625Y-69329375D01*
X165195692Y-69012035D01*
X165659577Y-68702077D01*
X165976740Y-68227409D01*
X166088113Y-67667500D01*
X165976740Y-67107591D01*
X165659577Y-66632923D01*
X165184909Y-66315760D01*
X164766333Y-66232500D01*
X164483667Y-66232500D01*
X164065091Y-66315760D01*
X163590423Y-66632923D01*
X163355000Y-66985258D01*
X163119577Y-66632923D01*
X162644909Y-66315760D01*
X162226333Y-66232500D01*
X161943667Y-66232500D01*
X161525091Y-66315760D01*
X161050423Y-66632923D01*
X160815000Y-66985258D01*
X160579577Y-66632923D01*
X160104909Y-66315760D01*
X159686333Y-66232500D01*
X159403667Y-66232500D01*
X158985091Y-66315760D01*
X158510423Y-66632923D01*
X158275000Y-66985258D01*
X158039577Y-66632923D01*
X157564909Y-66315760D01*
X157146333Y-66232500D01*
X156863667Y-66232500D01*
X156445091Y-66315760D01*
X155970423Y-66632923D01*
X155772667Y-66928886D01*
X155685786Y-66911604D01*
X155499577Y-66632923D01*
X155024909Y-66315760D01*
X154606333Y-66232500D01*
X154323667Y-66232500D01*
X153905091Y-66315760D01*
X153430423Y-66632923D01*
X153195000Y-66985258D01*
X152959577Y-66632923D01*
X152484909Y-66315760D01*
X152066333Y-66232500D01*
X151783667Y-66232500D01*
X151365091Y-66315760D01*
X150890423Y-66632923D01*
X150573260Y-67107591D01*
X150461887Y-67667500D01*
X150573260Y-68227409D01*
X150890423Y-68702077D01*
X151190467Y-68902560D01*
X151050000Y-68902560D01*
X150802235Y-68951843D01*
X150592191Y-69092191D01*
X150451843Y-69302235D01*
X150402560Y-69550000D01*
X148098042Y-69550000D01*
X147980000Y-69373338D01*
X147980000Y-68551783D01*
X148196740Y-68227409D01*
X148308113Y-67667500D01*
X148196740Y-67107591D01*
X147879577Y-66632923D01*
X147404909Y-66315760D01*
X147022282Y-66239651D01*
X146492631Y-65710000D01*
X166590000Y-65710000D01*
X166590001Y-67630071D01*
X166576091Y-67700000D01*
X166625601Y-67948900D01*
X166631196Y-67977028D01*
X166788120Y-68211881D01*
X166847402Y-68251492D01*
X169090000Y-70494092D01*
X169090001Y-102705907D01*
X166847402Y-104948508D01*
X166788119Y-104988120D01*
X166631195Y-105222973D01*
X166590000Y-105430074D01*
X166576091Y-105500000D01*
X166590000Y-105569924D01*
X166590001Y-116605908D01*
X165305910Y-117890000D01*
X101710000Y-117890000D01*
X101710000Y-115624159D01*
X114840000Y-115624159D01*
X114840000Y-116230841D01*
X115072167Y-116791343D01*
X115501157Y-117220333D01*
X116061659Y-117452500D01*
X116668341Y-117452500D01*
X117228843Y-117220333D01*
X117657833Y-116791343D01*
X117890000Y-116230841D01*
X117890000Y-115624159D01*
X117657833Y-115063657D01*
X117228843Y-114634667D01*
X116668341Y-114402500D01*
X116061659Y-114402500D01*
X115501157Y-114634667D01*
X115072167Y-115063657D01*
X114840000Y-115624159D01*
X101710000Y-115624159D01*
X101710000Y-112150000D01*
X118402560Y-112150000D01*
X118402560Y-113850000D01*
X118451843Y-114097765D01*
X118592191Y-114307809D01*
X118802235Y-114448157D01*
X119050000Y-114497440D01*
X119758832Y-114497440D01*
X119365091Y-114575760D01*
X118890423Y-114892923D01*
X118573260Y-115367591D01*
X118461887Y-115927500D01*
X118573260Y-116487409D01*
X118890423Y-116962077D01*
X119365091Y-117279240D01*
X119783667Y-117362500D01*
X120066333Y-117362500D01*
X120484909Y-117279240D01*
X120959577Y-116962077D01*
X121195000Y-116609742D01*
X121430423Y-116962077D01*
X121905091Y-117279240D01*
X122323667Y-117362500D01*
X122606333Y-117362500D01*
X123024909Y-117279240D01*
X123499577Y-116962077D01*
X123735000Y-116609742D01*
X123970423Y-116962077D01*
X124445091Y-117279240D01*
X124863667Y-117362500D01*
X125146333Y-117362500D01*
X125564909Y-117279240D01*
X126039577Y-116962077D01*
X126275000Y-116609742D01*
X126510423Y-116962077D01*
X126985091Y-117279240D01*
X127403667Y-117362500D01*
X127686333Y-117362500D01*
X128104909Y-117279240D01*
X128579577Y-116962077D01*
X128815000Y-116609742D01*
X129050423Y-116962077D01*
X129525091Y-117279240D01*
X129943667Y-117362500D01*
X130226333Y-117362500D01*
X130644909Y-117279240D01*
X131119577Y-116962077D01*
X131355000Y-116609742D01*
X131590423Y-116962077D01*
X132065091Y-117279240D01*
X132483667Y-117362500D01*
X132766333Y-117362500D01*
X133184909Y-117279240D01*
X133659577Y-116962077D01*
X133895000Y-116609742D01*
X134130423Y-116962077D01*
X134605091Y-117279240D01*
X135023667Y-117362500D01*
X135306333Y-117362500D01*
X135724909Y-117279240D01*
X136199577Y-116962077D01*
X136435000Y-116609742D01*
X136670423Y-116962077D01*
X137145091Y-117279240D01*
X137563667Y-117362500D01*
X137846333Y-117362500D01*
X138264909Y-117279240D01*
X138739577Y-116962077D01*
X138975000Y-116609742D01*
X139210423Y-116962077D01*
X139685091Y-117279240D01*
X140103667Y-117362500D01*
X140386333Y-117362500D01*
X140804909Y-117279240D01*
X141279577Y-116962077D01*
X141515000Y-116609742D01*
X141750423Y-116962077D01*
X142225091Y-117279240D01*
X142643667Y-117362500D01*
X142926333Y-117362500D01*
X143344909Y-117279240D01*
X143819577Y-116962077D01*
X144136740Y-116487409D01*
X144248113Y-115927500D01*
X144136740Y-115367591D01*
X143819577Y-114892923D01*
X143344909Y-114575760D01*
X142926333Y-114492500D01*
X142643667Y-114492500D01*
X142225091Y-114575760D01*
X141750423Y-114892923D01*
X141515000Y-115245258D01*
X141279577Y-114892923D01*
X140804909Y-114575760D01*
X140386333Y-114492500D01*
X140103667Y-114492500D01*
X139685091Y-114575760D01*
X139210423Y-114892923D01*
X138975000Y-115245258D01*
X138739577Y-114892923D01*
X138264909Y-114575760D01*
X137846333Y-114492500D01*
X137563667Y-114492500D01*
X137145091Y-114575760D01*
X136670423Y-114892923D01*
X136435000Y-115245258D01*
X136199577Y-114892923D01*
X135724909Y-114575760D01*
X135306333Y-114492500D01*
X135023667Y-114492500D01*
X134605091Y-114575760D01*
X134130423Y-114892923D01*
X133895000Y-115245258D01*
X133659577Y-114892923D01*
X133184909Y-114575760D01*
X132766333Y-114492500D01*
X132483667Y-114492500D01*
X132065091Y-114575760D01*
X131590423Y-114892923D01*
X131355000Y-115245258D01*
X131119577Y-114892923D01*
X130644909Y-114575760D01*
X130226333Y-114492500D01*
X129943667Y-114492500D01*
X129525091Y-114575760D01*
X129050423Y-114892923D01*
X128815000Y-115245258D01*
X128579577Y-114892923D01*
X128104909Y-114575760D01*
X127686333Y-114492500D01*
X127403667Y-114492500D01*
X126985091Y-114575760D01*
X126510423Y-114892923D01*
X126275000Y-115245258D01*
X126039577Y-114892923D01*
X125564909Y-114575760D01*
X125146333Y-114492500D01*
X124863667Y-114492500D01*
X124445091Y-114575760D01*
X123970423Y-114892923D01*
X123735000Y-115245258D01*
X123499577Y-114892923D01*
X123024909Y-114575760D01*
X122606333Y-114492500D01*
X122323667Y-114492500D01*
X121905091Y-114575760D01*
X121430423Y-114892923D01*
X121195000Y-115245258D01*
X120959577Y-114892923D01*
X120484909Y-114575760D01*
X120091168Y-114497440D01*
X120750000Y-114497440D01*
X120997765Y-114448157D01*
X121207809Y-114307809D01*
X121348157Y-114097765D01*
X121357184Y-114052381D01*
X121369375Y-114070625D01*
X121860582Y-114398839D01*
X122293744Y-114485000D01*
X122586256Y-114485000D01*
X123019418Y-114398839D01*
X123510625Y-114070625D01*
X123710000Y-113772239D01*
X123909375Y-114070625D01*
X124400582Y-114398839D01*
X124833744Y-114485000D01*
X125126256Y-114485000D01*
X125559418Y-114398839D01*
X126050625Y-114070625D01*
X126250000Y-113772239D01*
X126449375Y-114070625D01*
X126940582Y-114398839D01*
X127373744Y-114485000D01*
X127666256Y-114485000D01*
X128099418Y-114398839D01*
X128590625Y-114070625D01*
X128790000Y-113772239D01*
X128989375Y-114070625D01*
X129480582Y-114398839D01*
X129913744Y-114485000D01*
X130206256Y-114485000D01*
X130639418Y-114398839D01*
X131130625Y-114070625D01*
X131330000Y-113772239D01*
X131529375Y-114070625D01*
X132020582Y-114398839D01*
X132453744Y-114485000D01*
X132746256Y-114485000D01*
X133179418Y-114398839D01*
X133670625Y-114070625D01*
X133870000Y-113772239D01*
X134069375Y-114070625D01*
X134560582Y-114398839D01*
X134993744Y-114485000D01*
X135286256Y-114485000D01*
X135719418Y-114398839D01*
X136210625Y-114070625D01*
X136410000Y-113772239D01*
X136609375Y-114070625D01*
X137100582Y-114398839D01*
X137533744Y-114485000D01*
X137826256Y-114485000D01*
X138259418Y-114398839D01*
X138750625Y-114070625D01*
X138950000Y-113772239D01*
X139149375Y-114070625D01*
X139640582Y-114398839D01*
X140073744Y-114485000D01*
X140366256Y-114485000D01*
X140799418Y-114398839D01*
X141290625Y-114070625D01*
X141490000Y-113772239D01*
X141689375Y-114070625D01*
X142180582Y-114398839D01*
X142613744Y-114485000D01*
X142906256Y-114485000D01*
X143339418Y-114398839D01*
X143830625Y-114070625D01*
X144158839Y-113579418D01*
X144274092Y-113000000D01*
X144158839Y-112420582D01*
X143830625Y-111929375D01*
X143339418Y-111601161D01*
X142906256Y-111515000D01*
X142613744Y-111515000D01*
X142180582Y-111601161D01*
X141689375Y-111929375D01*
X141490000Y-112227761D01*
X141290625Y-111929375D01*
X140799418Y-111601161D01*
X140366256Y-111515000D01*
X140073744Y-111515000D01*
X139640582Y-111601161D01*
X139149375Y-111929375D01*
X138950000Y-112227761D01*
X138750625Y-111929375D01*
X138259418Y-111601161D01*
X137826256Y-111515000D01*
X137533744Y-111515000D01*
X137100582Y-111601161D01*
X136609375Y-111929375D01*
X136410000Y-112227761D01*
X136210625Y-111929375D01*
X135719418Y-111601161D01*
X135286256Y-111515000D01*
X134993744Y-111515000D01*
X134560582Y-111601161D01*
X134069375Y-111929375D01*
X133870000Y-112227761D01*
X133670625Y-111929375D01*
X133179418Y-111601161D01*
X132746256Y-111515000D01*
X132453744Y-111515000D01*
X132020582Y-111601161D01*
X131529375Y-111929375D01*
X131330000Y-112227761D01*
X131130625Y-111929375D01*
X130639418Y-111601161D01*
X130206256Y-111515000D01*
X129913744Y-111515000D01*
X129480582Y-111601161D01*
X128989375Y-111929375D01*
X128790000Y-112227761D01*
X128590625Y-111929375D01*
X128099418Y-111601161D01*
X127666256Y-111515000D01*
X127373744Y-111515000D01*
X126940582Y-111601161D01*
X126449375Y-111929375D01*
X126250000Y-112227761D01*
X126050625Y-111929375D01*
X125559418Y-111601161D01*
X125126256Y-111515000D01*
X124833744Y-111515000D01*
X124400582Y-111601161D01*
X123909375Y-111929375D01*
X123710000Y-112227761D01*
X123510625Y-111929375D01*
X123019418Y-111601161D01*
X122586256Y-111515000D01*
X122293744Y-111515000D01*
X121860582Y-111601161D01*
X121369375Y-111929375D01*
X121357184Y-111947619D01*
X121348157Y-111902235D01*
X121207809Y-111692191D01*
X120997765Y-111551843D01*
X120750000Y-111502560D01*
X119050000Y-111502560D01*
X118802235Y-111551843D01*
X118592191Y-111692191D01*
X118451843Y-111902235D01*
X118402560Y-112150000D01*
X101710000Y-112150000D01*
X101710000Y-107285750D01*
X118565000Y-107285750D01*
X118565000Y-108126310D01*
X118661673Y-108359699D01*
X118840302Y-108538327D01*
X119073691Y-108635000D01*
X119914250Y-108635000D01*
X120073000Y-108476250D01*
X120073000Y-107127000D01*
X120327000Y-107127000D01*
X120327000Y-108476250D01*
X120485750Y-108635000D01*
X121326309Y-108635000D01*
X121559698Y-108538327D01*
X121738327Y-108359699D01*
X121835000Y-108126310D01*
X121835000Y-107285750D01*
X121676250Y-107127000D01*
X120327000Y-107127000D01*
X120073000Y-107127000D01*
X118723750Y-107127000D01*
X118565000Y-107285750D01*
X101710000Y-107285750D01*
X101710000Y-105873690D01*
X118565000Y-105873690D01*
X118565000Y-106714250D01*
X118723750Y-106873000D01*
X120073000Y-106873000D01*
X120073000Y-105523750D01*
X120327000Y-105523750D01*
X120327000Y-106873000D01*
X121676250Y-106873000D01*
X121835000Y-106714250D01*
X121835000Y-106674778D01*
X122315000Y-106674778D01*
X122315000Y-107325222D01*
X122563914Y-107926153D01*
X123023847Y-108386086D01*
X123624778Y-108635000D01*
X124275222Y-108635000D01*
X124876153Y-108386086D01*
X125336086Y-107926153D01*
X125585000Y-107325222D01*
X125585000Y-106674778D01*
X126065000Y-106674778D01*
X126065000Y-107325222D01*
X126313914Y-107926153D01*
X126773847Y-108386086D01*
X127374778Y-108635000D01*
X128025222Y-108635000D01*
X128626153Y-108386086D01*
X129086086Y-107926153D01*
X129335000Y-107325222D01*
X129335000Y-106674778D01*
X129086086Y-106073847D01*
X129012239Y-106000000D01*
X135552560Y-106000000D01*
X135552560Y-108000000D01*
X135601843Y-108247765D01*
X135742191Y-108457809D01*
X135952235Y-108598157D01*
X136200000Y-108647440D01*
X138200000Y-108647440D01*
X138447765Y-108598157D01*
X138657809Y-108457809D01*
X138798157Y-108247765D01*
X138847440Y-108000000D01*
X138847440Y-106674778D01*
X139315000Y-106674778D01*
X139315000Y-107325222D01*
X139563914Y-107926153D01*
X140023847Y-108386086D01*
X140624778Y-108635000D01*
X141275222Y-108635000D01*
X141876153Y-108386086D01*
X142336086Y-107926153D01*
X142585000Y-107325222D01*
X142585000Y-106674778D01*
X143065000Y-106674778D01*
X143065000Y-107325222D01*
X143313914Y-107926153D01*
X143773847Y-108386086D01*
X144374778Y-108635000D01*
X145025222Y-108635000D01*
X145626153Y-108386086D01*
X146086086Y-107926153D01*
X146335000Y-107325222D01*
X146335000Y-106674778D01*
X146086086Y-106073847D01*
X145626153Y-105613914D01*
X145025222Y-105365000D01*
X144374778Y-105365000D01*
X143773847Y-105613914D01*
X143313914Y-106073847D01*
X143065000Y-106674778D01*
X142585000Y-106674778D01*
X142336086Y-106073847D01*
X141876153Y-105613914D01*
X141275222Y-105365000D01*
X140624778Y-105365000D01*
X140023847Y-105613914D01*
X139563914Y-106073847D01*
X139315000Y-106674778D01*
X138847440Y-106674778D01*
X138847440Y-106000000D01*
X138798157Y-105752235D01*
X138657809Y-105542191D01*
X138447765Y-105401843D01*
X138200000Y-105352560D01*
X136200000Y-105352560D01*
X135952235Y-105401843D01*
X135742191Y-105542191D01*
X135601843Y-105752235D01*
X135552560Y-106000000D01*
X129012239Y-106000000D01*
X128626153Y-105613914D01*
X128025222Y-105365000D01*
X127374778Y-105365000D01*
X126773847Y-105613914D01*
X126313914Y-106073847D01*
X126065000Y-106674778D01*
X125585000Y-106674778D01*
X125336086Y-106073847D01*
X124876153Y-105613914D01*
X124275222Y-105365000D01*
X123624778Y-105365000D01*
X123023847Y-105613914D01*
X122563914Y-106073847D01*
X122315000Y-106674778D01*
X121835000Y-106674778D01*
X121835000Y-105873690D01*
X121738327Y-105640301D01*
X121559698Y-105461673D01*
X121326309Y-105365000D01*
X120485750Y-105365000D01*
X120327000Y-105523750D01*
X120073000Y-105523750D01*
X119914250Y-105365000D01*
X119073691Y-105365000D01*
X118840302Y-105461673D01*
X118661673Y-105640301D01*
X118565000Y-105873690D01*
X101710000Y-105873690D01*
X101710000Y-96775000D01*
X116702560Y-96775000D01*
X116702560Y-100575000D01*
X116751843Y-100822765D01*
X116892191Y-101032809D01*
X117102235Y-101173157D01*
X117350000Y-101222440D01*
X120150000Y-101222440D01*
X120397765Y-101173157D01*
X120607809Y-101032809D01*
X120748157Y-100822765D01*
X120797440Y-100575000D01*
X120797440Y-96775000D01*
X127102560Y-96775000D01*
X127102560Y-100575000D01*
X127151843Y-100822765D01*
X127292191Y-101032809D01*
X127502235Y-101173157D01*
X127750000Y-101222440D01*
X130550000Y-101222440D01*
X130797765Y-101173157D01*
X131007809Y-101032809D01*
X131148157Y-100822765D01*
X131197440Y-100575000D01*
X131197440Y-96775000D01*
X133702560Y-96775000D01*
X133702560Y-100575000D01*
X133751843Y-100822765D01*
X133892191Y-101032809D01*
X134102235Y-101173157D01*
X134350000Y-101222440D01*
X137150000Y-101222440D01*
X137397765Y-101173157D01*
X137607809Y-101032809D01*
X137748157Y-100822765D01*
X137797440Y-100575000D01*
X137797440Y-96775000D01*
X144102560Y-96775000D01*
X144102560Y-100575000D01*
X144151843Y-100822765D01*
X144292191Y-101032809D01*
X144502235Y-101173157D01*
X144750000Y-101222440D01*
X147550000Y-101222440D01*
X147797765Y-101173157D01*
X148007809Y-101032809D01*
X148148157Y-100822765D01*
X148197440Y-100575000D01*
X148197440Y-96775000D01*
X148148157Y-96527235D01*
X148007809Y-96317191D01*
X147797765Y-96176843D01*
X147550000Y-96127560D01*
X144750000Y-96127560D01*
X144502235Y-96176843D01*
X144292191Y-96317191D01*
X144151843Y-96527235D01*
X144102560Y-96775000D01*
X137797440Y-96775000D01*
X137748157Y-96527235D01*
X137607809Y-96317191D01*
X137397765Y-96176843D01*
X137150000Y-96127560D01*
X134350000Y-96127560D01*
X134102235Y-96176843D01*
X133892191Y-96317191D01*
X133751843Y-96527235D01*
X133702560Y-96775000D01*
X131197440Y-96775000D01*
X131148157Y-96527235D01*
X131007809Y-96317191D01*
X130797765Y-96176843D01*
X130550000Y-96127560D01*
X127750000Y-96127560D01*
X127502235Y-96176843D01*
X127292191Y-96317191D01*
X127151843Y-96527235D01*
X127102560Y-96775000D01*
X120797440Y-96775000D01*
X120748157Y-96527235D01*
X120607809Y-96317191D01*
X120397765Y-96176843D01*
X120150000Y-96127560D01*
X117350000Y-96127560D01*
X117102235Y-96176843D01*
X116892191Y-96317191D01*
X116751843Y-96527235D01*
X116702560Y-96775000D01*
X101710000Y-96775000D01*
X101710000Y-87285750D01*
X118565000Y-87285750D01*
X118565000Y-88126310D01*
X118661673Y-88359699D01*
X118840302Y-88538327D01*
X119073691Y-88635000D01*
X119914250Y-88635000D01*
X120073000Y-88476250D01*
X120073000Y-87127000D01*
X120327000Y-87127000D01*
X120327000Y-88476250D01*
X120485750Y-88635000D01*
X121326309Y-88635000D01*
X121559698Y-88538327D01*
X121738327Y-88359699D01*
X121835000Y-88126310D01*
X121835000Y-87285750D01*
X121676250Y-87127000D01*
X120327000Y-87127000D01*
X120073000Y-87127000D01*
X118723750Y-87127000D01*
X118565000Y-87285750D01*
X101710000Y-87285750D01*
X101710000Y-67364159D01*
X113570000Y-67364159D01*
X113570000Y-67970841D01*
X113802167Y-68531343D01*
X114231157Y-68960333D01*
X114791659Y-69192500D01*
X115398341Y-69192500D01*
X115958843Y-68960333D01*
X116387833Y-68531343D01*
X116620000Y-67970841D01*
X116620000Y-67364159D01*
X116387833Y-66803657D01*
X115958843Y-66374667D01*
X115398341Y-66142500D01*
X114791659Y-66142500D01*
X114231157Y-66374667D01*
X113802167Y-66803657D01*
X113570000Y-67364159D01*
X101710000Y-67364159D01*
X101710000Y-65710000D01*
X124085359Y-65710000D01*
X106038720Y-83756160D01*
X106038720Y-83756160D01*
G37*
X106038720Y-83756160D02*
X105998157Y-83552235D01*
X105857809Y-83342191D01*
X105647765Y-83201843D01*
X105400000Y-83152560D01*
X105005453Y-83152560D01*
X105239444Y-83055638D01*
X105755638Y-82539444D01*
X106035000Y-81865004D01*
X106035000Y-81134996D01*
X105755638Y-80460556D01*
X105239444Y-79944362D01*
X104565004Y-79665000D01*
X103834996Y-79665000D01*
X103160556Y-79944362D01*
X102644362Y-80460556D01*
X102365000Y-81134996D01*
X102365000Y-81865004D01*
X102644362Y-82539444D01*
X103160556Y-83055638D01*
X103394547Y-83152560D01*
X103000000Y-83152560D01*
X102752235Y-83201843D01*
X102542191Y-83342191D01*
X102401843Y-83552235D01*
X102352560Y-83800000D01*
X102352560Y-86200000D01*
X102401843Y-86447765D01*
X102542191Y-86657809D01*
X102752235Y-86798157D01*
X103000000Y-86847440D01*
X105400000Y-86847440D01*
X105647765Y-86798157D01*
X105857809Y-86657809D01*
X105998157Y-86447765D01*
X106047440Y-86200000D01*
X106047440Y-86135000D01*
X106288210Y-86135000D01*
X106399985Y-86157235D01*
X106511776Y-86135000D01*
X106511783Y-86135000D01*
X106616997Y-86114072D01*
X106842840Y-86069152D01*
X106842846Y-86069148D01*
X106842855Y-86069146D01*
X107100474Y-85897010D01*
X107123511Y-85881618D01*
X107123512Y-85881617D01*
X107135375Y-85873690D01*
X118565000Y-85873690D01*
X118565000Y-86714250D01*
X118723750Y-86873000D01*
X120073000Y-86873000D01*
X120073000Y-85523750D01*
X120327000Y-85523750D01*
X120327000Y-86873000D01*
X121676250Y-86873000D01*
X121835000Y-86714250D01*
X121835000Y-86674778D01*
X122315000Y-86674778D01*
X122315000Y-87325222D01*
X122563914Y-87926153D01*
X123023847Y-88386086D01*
X123624778Y-88635000D01*
X124275222Y-88635000D01*
X124876153Y-88386086D01*
X125336086Y-87926153D01*
X125585000Y-87325222D01*
X125585000Y-86674778D01*
X126065000Y-86674778D01*
X126065000Y-87325222D01*
X126313914Y-87926153D01*
X126773847Y-88386086D01*
X127374778Y-88635000D01*
X128025222Y-88635000D01*
X128626153Y-88386086D01*
X129086086Y-87926153D01*
X129335000Y-87325222D01*
X129335000Y-87285750D01*
X135565000Y-87285750D01*
X135565000Y-88126310D01*
X135661673Y-88359699D01*
X135840302Y-88538327D01*
X136073691Y-88635000D01*
X136914250Y-88635000D01*
X137073000Y-88476250D01*
X137073000Y-87127000D01*
X137327000Y-87127000D01*
X137327000Y-88476250D01*
X137485750Y-88635000D01*
X138326309Y-88635000D01*
X138559698Y-88538327D01*
X138738327Y-88359699D01*
X138835000Y-88126310D01*
X138835000Y-87285750D01*
X138676250Y-87127000D01*
X137327000Y-87127000D01*
X137073000Y-87127000D01*
X135723750Y-87127000D01*
X135565000Y-87285750D01*
X129335000Y-87285750D01*
X129335000Y-86674778D01*
X129086086Y-86073847D01*
X128885929Y-85873690D01*
X135565000Y-85873690D01*
X135565000Y-86714250D01*
X135723750Y-86873000D01*
X137073000Y-86873000D01*
X137073000Y-85523750D01*
X137327000Y-85523750D01*
X137327000Y-86873000D01*
X138676250Y-86873000D01*
X138835000Y-86714250D01*
X138835000Y-86674778D01*
X139315000Y-86674778D01*
X139315000Y-87325222D01*
X139563914Y-87926153D01*
X140023847Y-88386086D01*
X140624778Y-88635000D01*
X141275222Y-88635000D01*
X141876153Y-88386086D01*
X142336086Y-87926153D01*
X142585000Y-87325222D01*
X142585000Y-86674778D01*
X143065000Y-86674778D01*
X143065000Y-87325222D01*
X143313914Y-87926153D01*
X143773847Y-88386086D01*
X144374778Y-88635000D01*
X145025222Y-88635000D01*
X145626153Y-88386086D01*
X146086086Y-87926153D01*
X146335000Y-87325222D01*
X146335000Y-86674778D01*
X146086086Y-86073847D01*
X145626153Y-85613914D01*
X145025222Y-85365000D01*
X144374778Y-85365000D01*
X143773847Y-85613914D01*
X143313914Y-86073847D01*
X143065000Y-86674778D01*
X142585000Y-86674778D01*
X142336086Y-86073847D01*
X141876153Y-85613914D01*
X141275222Y-85365000D01*
X140624778Y-85365000D01*
X140023847Y-85613914D01*
X139563914Y-86073847D01*
X139315000Y-86674778D01*
X138835000Y-86674778D01*
X138835000Y-85873690D01*
X138738327Y-85640301D01*
X138559698Y-85461673D01*
X138326309Y-85365000D01*
X137485750Y-85365000D01*
X137327000Y-85523750D01*
X137073000Y-85523750D01*
X136914250Y-85365000D01*
X136073691Y-85365000D01*
X135840302Y-85461673D01*
X135661673Y-85640301D01*
X135565000Y-85873690D01*
X128885929Y-85873690D01*
X128626153Y-85613914D01*
X128025222Y-85365000D01*
X127374778Y-85365000D01*
X126773847Y-85613914D01*
X126313914Y-86073847D01*
X126065000Y-86674778D01*
X125585000Y-86674778D01*
X125336086Y-86073847D01*
X124876153Y-85613914D01*
X124275222Y-85365000D01*
X123624778Y-85365000D01*
X123023847Y-85613914D01*
X122563914Y-86073847D01*
X122315000Y-86674778D01*
X121835000Y-86674778D01*
X121835000Y-85873690D01*
X121738327Y-85640301D01*
X121559698Y-85461673D01*
X121326309Y-85365000D01*
X120485750Y-85365000D01*
X120327000Y-85523750D01*
X120073000Y-85523750D01*
X119914250Y-85365000D01*
X119073691Y-85365000D01*
X118840302Y-85461673D01*
X118661673Y-85640301D01*
X118565000Y-85873690D01*
X107135375Y-85873690D01*
X107218289Y-85818289D01*
X107281608Y-85723525D01*
X116230371Y-76775000D01*
X116702560Y-76775000D01*
X116702560Y-80575000D01*
X116751843Y-80822765D01*
X116892191Y-81032809D01*
X117102235Y-81173157D01*
X117350000Y-81222440D01*
X120150000Y-81222440D01*
X120397765Y-81173157D01*
X120607809Y-81032809D01*
X120748157Y-80822765D01*
X120797440Y-80575000D01*
X120797440Y-76775000D01*
X127102560Y-76775000D01*
X127102560Y-80575000D01*
X127151843Y-80822765D01*
X127292191Y-81032809D01*
X127502235Y-81173157D01*
X127750000Y-81222440D01*
X130550000Y-81222440D01*
X130797765Y-81173157D01*
X131007809Y-81032809D01*
X131148157Y-80822765D01*
X131197440Y-80575000D01*
X131197440Y-76775000D01*
X133702560Y-76775000D01*
X133702560Y-80575000D01*
X133751843Y-80822765D01*
X133892191Y-81032809D01*
X134102235Y-81173157D01*
X134350000Y-81222440D01*
X137150000Y-81222440D01*
X137397765Y-81173157D01*
X137607809Y-81032809D01*
X137748157Y-80822765D01*
X137797440Y-80575000D01*
X137797440Y-76775000D01*
X144102560Y-76775000D01*
X144102560Y-80575000D01*
X144151843Y-80822765D01*
X144292191Y-81032809D01*
X144502235Y-81173157D01*
X144750000Y-81222440D01*
X147550000Y-81222440D01*
X147797765Y-81173157D01*
X148007809Y-81032809D01*
X148148157Y-80822765D01*
X148197440Y-80575000D01*
X148197440Y-76775000D01*
X148148157Y-76527235D01*
X148007809Y-76317191D01*
X147797765Y-76176843D01*
X147550000Y-76127560D01*
X144750000Y-76127560D01*
X144502235Y-76176843D01*
X144292191Y-76317191D01*
X144151843Y-76527235D01*
X144102560Y-76775000D01*
X137797440Y-76775000D01*
X137748157Y-76527235D01*
X137607809Y-76317191D01*
X137397765Y-76176843D01*
X137150000Y-76127560D01*
X134350000Y-76127560D01*
X134102235Y-76176843D01*
X133892191Y-76317191D01*
X133751843Y-76527235D01*
X133702560Y-76775000D01*
X131197440Y-76775000D01*
X131148157Y-76527235D01*
X131007809Y-76317191D01*
X130797765Y-76176843D01*
X130550000Y-76127560D01*
X127750000Y-76127560D01*
X127502235Y-76176843D01*
X127292191Y-76317191D01*
X127151843Y-76527235D01*
X127102560Y-76775000D01*
X120797440Y-76775000D01*
X120748157Y-76527235D01*
X120607809Y-76317191D01*
X120397765Y-76176843D01*
X120150000Y-76127560D01*
X117350000Y-76127560D01*
X117102235Y-76176843D01*
X116892191Y-76317191D01*
X116751843Y-76527235D01*
X116702560Y-76775000D01*
X116230371Y-76775000D01*
X125703123Y-67302500D01*
X127617560Y-67302500D01*
X127617560Y-68467500D01*
X127666843Y-68715265D01*
X127807191Y-68925309D01*
X127924568Y-69003739D01*
X127792191Y-69092191D01*
X127651843Y-69302235D01*
X127602560Y-69550000D01*
X127602560Y-71250000D01*
X127651843Y-71497765D01*
X127792191Y-71707809D01*
X128002235Y-71848157D01*
X128250000Y-71897440D01*
X129950000Y-71897440D01*
X130197765Y-71848157D01*
X130407809Y-71707809D01*
X130548157Y-71497765D01*
X130557184Y-71452381D01*
X130569375Y-71470625D01*
X131060582Y-71798839D01*
X131493744Y-71885000D01*
X131786256Y-71885000D01*
X132219418Y-71798839D01*
X132710625Y-71470625D01*
X132910000Y-71172239D01*
X133109375Y-71470625D01*
X133600582Y-71798839D01*
X134033744Y-71885000D01*
X134326256Y-71885000D01*
X134759418Y-71798839D01*
X135250625Y-71470625D01*
X135450000Y-71172239D01*
X135649375Y-71470625D01*
X136140582Y-71798839D01*
X136573744Y-71885000D01*
X136866256Y-71885000D01*
X137299418Y-71798839D01*
X137790625Y-71470625D01*
X138003843Y-71151522D01*
X138064817Y-71281358D01*
X138493076Y-71671645D01*
X138903110Y-71841476D01*
X139133000Y-71720155D01*
X139133000Y-70527000D01*
X139113000Y-70527000D01*
X139113000Y-70273000D01*
X139133000Y-70273000D01*
X139133000Y-69079845D01*
X138982918Y-69000641D01*
X139098000Y-68937415D01*
X139098000Y-67794500D01*
X139078000Y-67794500D01*
X139078000Y-67540500D01*
X139098000Y-67540500D01*
X139098000Y-67520500D01*
X139352000Y-67520500D01*
X139352000Y-67540500D01*
X139372000Y-67540500D01*
X139372000Y-67794500D01*
X139352000Y-67794500D01*
X139352000Y-68937415D01*
X139501378Y-69019484D01*
X139387000Y-69079845D01*
X139387000Y-70273000D01*
X139407000Y-70273000D01*
X139407000Y-70527000D01*
X139387000Y-70527000D01*
X139387000Y-71720155D01*
X139616890Y-71841476D01*
X140026924Y-71671645D01*
X140455183Y-71281358D01*
X140516157Y-71151522D01*
X140729375Y-71470625D01*
X141220582Y-71798839D01*
X141653744Y-71885000D01*
X141946256Y-71885000D01*
X142379418Y-71798839D01*
X142870625Y-71470625D01*
X143070000Y-71172239D01*
X143269375Y-71470625D01*
X143760582Y-71798839D01*
X144193744Y-71885000D01*
X144486256Y-71885000D01*
X144919418Y-71798839D01*
X145410625Y-71470625D01*
X145610000Y-71172239D01*
X145809375Y-71470625D01*
X146300582Y-71798839D01*
X146733744Y-71885000D01*
X146759869Y-71885000D01*
X148760001Y-73885133D01*
X148760000Y-103413217D01*
X148737765Y-103525000D01*
X148778712Y-103730854D01*
X148825854Y-103967854D01*
X149076711Y-104343289D01*
X149171482Y-104406613D01*
X150060000Y-105295132D01*
X150060000Y-105411782D01*
X150125854Y-105742854D01*
X150247560Y-105925000D01*
X150247560Y-106075000D01*
X150296843Y-106322765D01*
X150437191Y-106532809D01*
X150647235Y-106673157D01*
X150895000Y-106722440D01*
X151378864Y-106722440D01*
X151395854Y-106807855D01*
X151646712Y-107183289D01*
X151741480Y-107246611D01*
X153518389Y-109023521D01*
X153581711Y-109118289D01*
X153957145Y-109369146D01*
X154288217Y-109435000D01*
X154399999Y-109457235D01*
X154511781Y-109435000D01*
X161439918Y-109435000D01*
X161860556Y-109855638D01*
X162269691Y-110025107D01*
X161230099Y-111064700D01*
X159118046Y-111064700D01*
X159043199Y-111049812D01*
X158968352Y-111064700D01*
X158968348Y-111064700D01*
X158746663Y-111108796D01*
X158495271Y-111276771D01*
X158452871Y-111340227D01*
X157970629Y-111822469D01*
X157639418Y-111601161D01*
X157206256Y-111515000D01*
X156913744Y-111515000D01*
X156480582Y-111601161D01*
X155989375Y-111929375D01*
X155790000Y-112227761D01*
X155590625Y-111929375D01*
X155099418Y-111601161D01*
X154666256Y-111515000D01*
X154373744Y-111515000D01*
X153940582Y-111601161D01*
X153449375Y-111929375D01*
X153250000Y-112227761D01*
X153050625Y-111929375D01*
X152559418Y-111601161D01*
X152126256Y-111515000D01*
X151833744Y-111515000D01*
X151400582Y-111601161D01*
X150909375Y-111929375D01*
X150710000Y-112227761D01*
X150510625Y-111929375D01*
X150019418Y-111601161D01*
X149586256Y-111515000D01*
X149293744Y-111515000D01*
X148860582Y-111601161D01*
X148369375Y-111929375D01*
X148357184Y-111947619D01*
X148348157Y-111902235D01*
X148207809Y-111692191D01*
X147997765Y-111551843D01*
X147750000Y-111502560D01*
X146050000Y-111502560D01*
X145802235Y-111551843D01*
X145592191Y-111692191D01*
X145451843Y-111902235D01*
X145402560Y-112150000D01*
X145402560Y-113850000D01*
X145451843Y-114097765D01*
X145592191Y-114307809D01*
X145802235Y-114448157D01*
X146050000Y-114497440D01*
X146678832Y-114497440D01*
X146285091Y-114575760D01*
X145810423Y-114892923D01*
X145493260Y-115367591D01*
X145381887Y-115927500D01*
X145493260Y-116487409D01*
X145810423Y-116962077D01*
X146285091Y-117279240D01*
X146703667Y-117362500D01*
X146986333Y-117362500D01*
X147404909Y-117279240D01*
X147879577Y-116962077D01*
X148115000Y-116609742D01*
X148350423Y-116962077D01*
X148825091Y-117279240D01*
X149243667Y-117362500D01*
X149526333Y-117362500D01*
X149944909Y-117279240D01*
X150419577Y-116962077D01*
X150655000Y-116609742D01*
X150890423Y-116962077D01*
X151365091Y-117279240D01*
X151783667Y-117362500D01*
X152066333Y-117362500D01*
X152484909Y-117279240D01*
X152959577Y-116962077D01*
X153195000Y-116609742D01*
X153430423Y-116962077D01*
X153905091Y-117279240D01*
X154323667Y-117362500D01*
X154606333Y-117362500D01*
X155024909Y-117279240D01*
X155499577Y-116962077D01*
X155735000Y-116609742D01*
X155970423Y-116962077D01*
X156445091Y-117279240D01*
X156863667Y-117362500D01*
X157146333Y-117362500D01*
X157564909Y-117279240D01*
X158039577Y-116962077D01*
X158275000Y-116609742D01*
X158510423Y-116962077D01*
X158985091Y-117279240D01*
X159403667Y-117362500D01*
X159686333Y-117362500D01*
X160104909Y-117279240D01*
X160579577Y-116962077D01*
X160815000Y-116609742D01*
X161050423Y-116962077D01*
X161525091Y-117279240D01*
X161943667Y-117362500D01*
X162226333Y-117362500D01*
X162644909Y-117279240D01*
X163119577Y-116962077D01*
X163355000Y-116609742D01*
X163590423Y-116962077D01*
X164065091Y-117279240D01*
X164483667Y-117362500D01*
X164766333Y-117362500D01*
X165184909Y-117279240D01*
X165659577Y-116962077D01*
X165976740Y-116487409D01*
X166088113Y-115927500D01*
X165976740Y-115367591D01*
X165659577Y-114892923D01*
X165184909Y-114575760D01*
X164766333Y-114492500D01*
X164483667Y-114492500D01*
X164065091Y-114575760D01*
X163590423Y-114892923D01*
X163355000Y-115245258D01*
X163119577Y-114892923D01*
X163044152Y-114842526D01*
X163162229Y-114763629D01*
X163204631Y-114700170D01*
X163744134Y-114160668D01*
X164100582Y-114398839D01*
X164533744Y-114485000D01*
X164826256Y-114485000D01*
X165259418Y-114398839D01*
X165750625Y-114070625D01*
X166078839Y-113579418D01*
X166194092Y-113000000D01*
X166078839Y-112420582D01*
X165750625Y-111929375D01*
X165259418Y-111601161D01*
X164955661Y-111540740D01*
X165402373Y-111094029D01*
X165465829Y-111051629D01*
X165633804Y-110800237D01*
X165677900Y-110578552D01*
X165677900Y-110578548D01*
X165692788Y-110503700D01*
X165677900Y-110428852D01*
X165677900Y-103363748D01*
X165692788Y-103288900D01*
X165677900Y-103214052D01*
X165677900Y-103214048D01*
X165633804Y-102992363D01*
X165465829Y-102740971D01*
X165402373Y-102698571D01*
X163087961Y-100384159D01*
X165640000Y-100384159D01*
X165640000Y-100990841D01*
X165872167Y-101551343D01*
X166301157Y-101980333D01*
X166861659Y-102212500D01*
X167468341Y-102212500D01*
X168028843Y-101980333D01*
X168457833Y-101551343D01*
X168690000Y-100990841D01*
X168690000Y-100384159D01*
X168457833Y-99823657D01*
X168028843Y-99394667D01*
X167468341Y-99162500D01*
X166861659Y-99162500D01*
X166301157Y-99394667D01*
X165872167Y-99823657D01*
X165640000Y-100384159D01*
X163087961Y-100384159D01*
X160558131Y-97854330D01*
X160515729Y-97790871D01*
X160264337Y-97622896D01*
X160042652Y-97578800D01*
X160042647Y-97578800D01*
X159967800Y-97563912D01*
X159892953Y-97578800D01*
X151730746Y-97578800D01*
X151655899Y-97563912D01*
X151581052Y-97578800D01*
X151581048Y-97578800D01*
X151359363Y-97622896D01*
X151107971Y-97790871D01*
X151065569Y-97854330D01*
X151030000Y-97889899D01*
X151030000Y-87285750D01*
X152565000Y-87285750D01*
X152565000Y-88126310D01*
X152661673Y-88359699D01*
X152840302Y-88538327D01*
X153073691Y-88635000D01*
X153914250Y-88635000D01*
X154073000Y-88476250D01*
X154073000Y-87127000D01*
X152723750Y-87127000D01*
X152565000Y-87285750D01*
X151030000Y-87285750D01*
X151030000Y-85873690D01*
X152565000Y-85873690D01*
X152565000Y-86714250D01*
X152723750Y-86873000D01*
X154073000Y-86873000D01*
X154073000Y-85523750D01*
X153914250Y-85365000D01*
X153073691Y-85365000D01*
X152840302Y-85461673D01*
X152661673Y-85640301D01*
X152565000Y-85873690D01*
X151030000Y-85873690D01*
X151030000Y-81124891D01*
X151102235Y-81173157D01*
X151350000Y-81222440D01*
X154150000Y-81222440D01*
X154397765Y-81173157D01*
X154607809Y-81032809D01*
X154748157Y-80822765D01*
X154797440Y-80575000D01*
X154797440Y-76775000D01*
X154748157Y-76527235D01*
X154607809Y-76317191D01*
X154397765Y-76176843D01*
X154150000Y-76127560D01*
X151350000Y-76127560D01*
X151102235Y-76176843D01*
X151030000Y-76225109D01*
X151030000Y-73526783D01*
X151052235Y-73415000D01*
X150964146Y-72972145D01*
X150888230Y-72858529D01*
X150713289Y-72596711D01*
X150618521Y-72533389D01*
X148371487Y-70286356D01*
X148278839Y-69820582D01*
X148098042Y-69550000D01*
X150402560Y-69550000D01*
X150402560Y-71250000D01*
X150451843Y-71497765D01*
X150592191Y-71707809D01*
X150802235Y-71848157D01*
X151050000Y-71897440D01*
X151201204Y-71897440D01*
X151279130Y-72014063D01*
X151352072Y-72123229D01*
X151415528Y-72165629D01*
X155034301Y-75784403D01*
X155034300Y-85365000D01*
X154485750Y-85365000D01*
X154327000Y-85523750D01*
X154327000Y-86873000D01*
X154347000Y-86873000D01*
X154347000Y-87127000D01*
X154327000Y-87127000D01*
X154327000Y-88476250D01*
X154485750Y-88635000D01*
X155034300Y-88635000D01*
X155034300Y-94892453D01*
X155019412Y-94967300D01*
X155034300Y-95042147D01*
X155034300Y-95042151D01*
X155078396Y-95263836D01*
X155246371Y-95515229D01*
X155309830Y-95557631D01*
X155836971Y-96084773D01*
X155879371Y-96148229D01*
X156130763Y-96316204D01*
X156352448Y-96360300D01*
X156352452Y-96360300D01*
X156427299Y-96375188D01*
X156502146Y-96360300D01*
X157719553Y-96360300D01*
X157794400Y-96375188D01*
X157869247Y-96360300D01*
X157869252Y-96360300D01*
X158090937Y-96316204D01*
X158342329Y-96148229D01*
X158384731Y-96084770D01*
X158584049Y-95885452D01*
X158770000Y-95922440D01*
X159830000Y-95922440D01*
X160077765Y-95873157D01*
X160102560Y-95856589D01*
X160102560Y-96000000D01*
X160151843Y-96247765D01*
X160292191Y-96457809D01*
X160502235Y-96598157D01*
X160750000Y-96647440D01*
X161650000Y-96647440D01*
X161897765Y-96598157D01*
X162029700Y-96510000D01*
X162739853Y-96510000D01*
X162814700Y-96524888D01*
X162889547Y-96510000D01*
X162889552Y-96510000D01*
X163111237Y-96465904D01*
X163362629Y-96297929D01*
X163405031Y-96234470D01*
X164202611Y-95436890D01*
X165758524Y-95436890D01*
X165928355Y-95846924D01*
X166318642Y-96275183D01*
X166843108Y-96521486D01*
X167073000Y-96400819D01*
X167073000Y-95207000D01*
X167327000Y-95207000D01*
X167327000Y-96400819D01*
X167556892Y-96521486D01*
X168081358Y-96275183D01*
X168471645Y-95846924D01*
X168641476Y-95436890D01*
X168520155Y-95207000D01*
X167327000Y-95207000D01*
X167073000Y-95207000D01*
X165879845Y-95207000D01*
X165758524Y-95436890D01*
X164202611Y-95436890D01*
X166089121Y-93550381D01*
X166129375Y-93610625D01*
X166448478Y-93823843D01*
X166318642Y-93884817D01*
X165928355Y-94313076D01*
X165758524Y-94723110D01*
X165879845Y-94953000D01*
X167073000Y-94953000D01*
X167073000Y-94933000D01*
X167327000Y-94933000D01*
X167327000Y-94953000D01*
X168520155Y-94953000D01*
X168641476Y-94723110D01*
X168471645Y-94313076D01*
X168081358Y-93884817D01*
X167951522Y-93823843D01*
X168270625Y-93610625D01*
X168598839Y-93119418D01*
X168714092Y-92540000D01*
X168598839Y-91960582D01*
X168270625Y-91469375D01*
X168252381Y-91457184D01*
X168297765Y-91448157D01*
X168507809Y-91307809D01*
X168648157Y-91097765D01*
X168697440Y-90850000D01*
X168697440Y-89150000D01*
X168648157Y-88902235D01*
X168507809Y-88692191D01*
X168297765Y-88551843D01*
X168050000Y-88502560D01*
X166784700Y-88502560D01*
X166784700Y-87920847D01*
X166799588Y-87846000D01*
X166784700Y-87771153D01*
X166784700Y-87771148D01*
X166740604Y-87549463D01*
X166572629Y-87298071D01*
X166509173Y-87255671D01*
X158925800Y-79672299D01*
X158925800Y-76775000D01*
X161102560Y-76775000D01*
X161102560Y-80575000D01*
X161151843Y-80822765D01*
X161292191Y-81032809D01*
X161502235Y-81173157D01*
X161750000Y-81222440D01*
X164550000Y-81222440D01*
X164797765Y-81173157D01*
X165007809Y-81032809D01*
X165148157Y-80822765D01*
X165197440Y-80575000D01*
X165197440Y-76775000D01*
X165148157Y-76527235D01*
X165007809Y-76317191D01*
X164797765Y-76176843D01*
X164550000Y-76127560D01*
X161750000Y-76127560D01*
X161502235Y-76176843D01*
X161292191Y-76317191D01*
X161151843Y-76527235D01*
X161102560Y-76775000D01*
X158925800Y-76775000D01*
X158925800Y-72444159D01*
X165640000Y-72444159D01*
X165640000Y-73050841D01*
X165872167Y-73611343D01*
X166301157Y-74040333D01*
X166861659Y-74272500D01*
X167468341Y-74272500D01*
X168028843Y-74040333D01*
X168457833Y-73611343D01*
X168690000Y-73050841D01*
X168690000Y-72444159D01*
X168457833Y-71883657D01*
X168028843Y-71454667D01*
X167468341Y-71222500D01*
X166861659Y-71222500D01*
X166301157Y-71454667D01*
X165872167Y-71883657D01*
X165640000Y-72444159D01*
X158925800Y-72444159D01*
X158925800Y-71788962D01*
X158940582Y-71798839D01*
X159373744Y-71885000D01*
X159666256Y-71885000D01*
X160099418Y-71798839D01*
X160590625Y-71470625D01*
X160790000Y-71172239D01*
X160989375Y-71470625D01*
X161480582Y-71798839D01*
X161913744Y-71885000D01*
X162206256Y-71885000D01*
X162639418Y-71798839D01*
X163130625Y-71470625D01*
X163330000Y-71172239D01*
X163529375Y-71470625D01*
X164020582Y-71798839D01*
X164453744Y-71885000D01*
X164746256Y-71885000D01*
X165179418Y-71798839D01*
X165670625Y-71470625D01*
X165998839Y-70979418D01*
X166114092Y-70400000D01*
X165998839Y-69820582D01*
X165670625Y-69329375D01*
X165195692Y-69012035D01*
X165659577Y-68702077D01*
X165976740Y-68227409D01*
X166088113Y-67667500D01*
X165976740Y-67107591D01*
X165659577Y-66632923D01*
X165184909Y-66315760D01*
X164766333Y-66232500D01*
X164483667Y-66232500D01*
X164065091Y-66315760D01*
X163590423Y-66632923D01*
X163355000Y-66985258D01*
X163119577Y-66632923D01*
X162644909Y-66315760D01*
X162226333Y-66232500D01*
X161943667Y-66232500D01*
X161525091Y-66315760D01*
X161050423Y-66632923D01*
X160815000Y-66985258D01*
X160579577Y-66632923D01*
X160104909Y-66315760D01*
X159686333Y-66232500D01*
X159403667Y-66232500D01*
X158985091Y-66315760D01*
X158510423Y-66632923D01*
X158275000Y-66985258D01*
X158039577Y-66632923D01*
X157564909Y-66315760D01*
X157146333Y-66232500D01*
X156863667Y-66232500D01*
X156445091Y-66315760D01*
X155970423Y-66632923D01*
X155772667Y-66928886D01*
X155685786Y-66911604D01*
X155499577Y-66632923D01*
X155024909Y-66315760D01*
X154606333Y-66232500D01*
X154323667Y-66232500D01*
X153905091Y-66315760D01*
X153430423Y-66632923D01*
X153195000Y-66985258D01*
X152959577Y-66632923D01*
X152484909Y-66315760D01*
X152066333Y-66232500D01*
X151783667Y-66232500D01*
X151365091Y-66315760D01*
X150890423Y-66632923D01*
X150573260Y-67107591D01*
X150461887Y-67667500D01*
X150573260Y-68227409D01*
X150890423Y-68702077D01*
X151190467Y-68902560D01*
X151050000Y-68902560D01*
X150802235Y-68951843D01*
X150592191Y-69092191D01*
X150451843Y-69302235D01*
X150402560Y-69550000D01*
X148098042Y-69550000D01*
X147980000Y-69373338D01*
X147980000Y-68551783D01*
X148196740Y-68227409D01*
X148308113Y-67667500D01*
X148196740Y-67107591D01*
X147879577Y-66632923D01*
X147404909Y-66315760D01*
X147022282Y-66239651D01*
X146492631Y-65710000D01*
X166590000Y-65710000D01*
X166590001Y-67630071D01*
X166576091Y-67700000D01*
X166625601Y-67948900D01*
X166631196Y-67977028D01*
X166788120Y-68211881D01*
X166847402Y-68251492D01*
X169090000Y-70494092D01*
X169090001Y-102705907D01*
X166847402Y-104948508D01*
X166788119Y-104988120D01*
X166631195Y-105222973D01*
X166590000Y-105430074D01*
X166576091Y-105500000D01*
X166590000Y-105569924D01*
X166590001Y-116605908D01*
X165305910Y-117890000D01*
X101710000Y-117890000D01*
X101710000Y-115624159D01*
X114840000Y-115624159D01*
X114840000Y-116230841D01*
X115072167Y-116791343D01*
X115501157Y-117220333D01*
X116061659Y-117452500D01*
X116668341Y-117452500D01*
X117228843Y-117220333D01*
X117657833Y-116791343D01*
X117890000Y-116230841D01*
X117890000Y-115624159D01*
X117657833Y-115063657D01*
X117228843Y-114634667D01*
X116668341Y-114402500D01*
X116061659Y-114402500D01*
X115501157Y-114634667D01*
X115072167Y-115063657D01*
X114840000Y-115624159D01*
X101710000Y-115624159D01*
X101710000Y-112150000D01*
X118402560Y-112150000D01*
X118402560Y-113850000D01*
X118451843Y-114097765D01*
X118592191Y-114307809D01*
X118802235Y-114448157D01*
X119050000Y-114497440D01*
X119758832Y-114497440D01*
X119365091Y-114575760D01*
X118890423Y-114892923D01*
X118573260Y-115367591D01*
X118461887Y-115927500D01*
X118573260Y-116487409D01*
X118890423Y-116962077D01*
X119365091Y-117279240D01*
X119783667Y-117362500D01*
X120066333Y-117362500D01*
X120484909Y-117279240D01*
X120959577Y-116962077D01*
X121195000Y-116609742D01*
X121430423Y-116962077D01*
X121905091Y-117279240D01*
X122323667Y-117362500D01*
X122606333Y-117362500D01*
X123024909Y-117279240D01*
X123499577Y-116962077D01*
X123735000Y-116609742D01*
X123970423Y-116962077D01*
X124445091Y-117279240D01*
X124863667Y-117362500D01*
X125146333Y-117362500D01*
X125564909Y-117279240D01*
X126039577Y-116962077D01*
X126275000Y-116609742D01*
X126510423Y-116962077D01*
X126985091Y-117279240D01*
X127403667Y-117362500D01*
X127686333Y-117362500D01*
X128104909Y-117279240D01*
X128579577Y-116962077D01*
X128815000Y-116609742D01*
X129050423Y-116962077D01*
X129525091Y-117279240D01*
X129943667Y-117362500D01*
X130226333Y-117362500D01*
X130644909Y-117279240D01*
X131119577Y-116962077D01*
X131355000Y-116609742D01*
X131590423Y-116962077D01*
X132065091Y-117279240D01*
X132483667Y-117362500D01*
X132766333Y-117362500D01*
X133184909Y-117279240D01*
X133659577Y-116962077D01*
X133895000Y-116609742D01*
X134130423Y-116962077D01*
X134605091Y-117279240D01*
X135023667Y-117362500D01*
X135306333Y-117362500D01*
X135724909Y-117279240D01*
X136199577Y-116962077D01*
X136435000Y-116609742D01*
X136670423Y-116962077D01*
X137145091Y-117279240D01*
X137563667Y-117362500D01*
X137846333Y-117362500D01*
X138264909Y-117279240D01*
X138739577Y-116962077D01*
X138975000Y-116609742D01*
X139210423Y-116962077D01*
X139685091Y-117279240D01*
X140103667Y-117362500D01*
X140386333Y-117362500D01*
X140804909Y-117279240D01*
X141279577Y-116962077D01*
X141515000Y-116609742D01*
X141750423Y-116962077D01*
X142225091Y-117279240D01*
X142643667Y-117362500D01*
X142926333Y-117362500D01*
X143344909Y-117279240D01*
X143819577Y-116962077D01*
X144136740Y-116487409D01*
X144248113Y-115927500D01*
X144136740Y-115367591D01*
X143819577Y-114892923D01*
X143344909Y-114575760D01*
X142926333Y-114492500D01*
X142643667Y-114492500D01*
X142225091Y-114575760D01*
X141750423Y-114892923D01*
X141515000Y-115245258D01*
X141279577Y-114892923D01*
X140804909Y-114575760D01*
X140386333Y-114492500D01*
X140103667Y-114492500D01*
X139685091Y-114575760D01*
X139210423Y-114892923D01*
X138975000Y-115245258D01*
X138739577Y-114892923D01*
X138264909Y-114575760D01*
X137846333Y-114492500D01*
X137563667Y-114492500D01*
X137145091Y-114575760D01*
X136670423Y-114892923D01*
X136435000Y-115245258D01*
X136199577Y-114892923D01*
X135724909Y-114575760D01*
X135306333Y-114492500D01*
X135023667Y-114492500D01*
X134605091Y-114575760D01*
X134130423Y-114892923D01*
X133895000Y-115245258D01*
X133659577Y-114892923D01*
X133184909Y-114575760D01*
X132766333Y-114492500D01*
X132483667Y-114492500D01*
X132065091Y-114575760D01*
X131590423Y-114892923D01*
X131355000Y-115245258D01*
X131119577Y-114892923D01*
X130644909Y-114575760D01*
X130226333Y-114492500D01*
X129943667Y-114492500D01*
X129525091Y-114575760D01*
X129050423Y-114892923D01*
X128815000Y-115245258D01*
X128579577Y-114892923D01*
X128104909Y-114575760D01*
X127686333Y-114492500D01*
X127403667Y-114492500D01*
X126985091Y-114575760D01*
X126510423Y-114892923D01*
X126275000Y-115245258D01*
X126039577Y-114892923D01*
X125564909Y-114575760D01*
X125146333Y-114492500D01*
X124863667Y-114492500D01*
X124445091Y-114575760D01*
X123970423Y-114892923D01*
X123735000Y-115245258D01*
X123499577Y-114892923D01*
X123024909Y-114575760D01*
X122606333Y-114492500D01*
X122323667Y-114492500D01*
X121905091Y-114575760D01*
X121430423Y-114892923D01*
X121195000Y-115245258D01*
X120959577Y-114892923D01*
X120484909Y-114575760D01*
X120091168Y-114497440D01*
X120750000Y-114497440D01*
X120997765Y-114448157D01*
X121207809Y-114307809D01*
X121348157Y-114097765D01*
X121357184Y-114052381D01*
X121369375Y-114070625D01*
X121860582Y-114398839D01*
X122293744Y-114485000D01*
X122586256Y-114485000D01*
X123019418Y-114398839D01*
X123510625Y-114070625D01*
X123710000Y-113772239D01*
X123909375Y-114070625D01*
X124400582Y-114398839D01*
X124833744Y-114485000D01*
X125126256Y-114485000D01*
X125559418Y-114398839D01*
X126050625Y-114070625D01*
X126250000Y-113772239D01*
X126449375Y-114070625D01*
X126940582Y-114398839D01*
X127373744Y-114485000D01*
X127666256Y-114485000D01*
X128099418Y-114398839D01*
X128590625Y-114070625D01*
X128790000Y-113772239D01*
X128989375Y-114070625D01*
X129480582Y-114398839D01*
X129913744Y-114485000D01*
X130206256Y-114485000D01*
X130639418Y-114398839D01*
X131130625Y-114070625D01*
X131330000Y-113772239D01*
X131529375Y-114070625D01*
X132020582Y-114398839D01*
X132453744Y-114485000D01*
X132746256Y-114485000D01*
X133179418Y-114398839D01*
X133670625Y-114070625D01*
X133870000Y-113772239D01*
X134069375Y-114070625D01*
X134560582Y-114398839D01*
X134993744Y-114485000D01*
X135286256Y-114485000D01*
X135719418Y-114398839D01*
X136210625Y-114070625D01*
X136410000Y-113772239D01*
X136609375Y-114070625D01*
X137100582Y-114398839D01*
X137533744Y-114485000D01*
X137826256Y-114485000D01*
X138259418Y-114398839D01*
X138750625Y-114070625D01*
X138950000Y-113772239D01*
X139149375Y-114070625D01*
X139640582Y-114398839D01*
X140073744Y-114485000D01*
X140366256Y-114485000D01*
X140799418Y-114398839D01*
X141290625Y-114070625D01*
X141490000Y-113772239D01*
X141689375Y-114070625D01*
X142180582Y-114398839D01*
X142613744Y-114485000D01*
X142906256Y-114485000D01*
X143339418Y-114398839D01*
X143830625Y-114070625D01*
X144158839Y-113579418D01*
X144274092Y-113000000D01*
X144158839Y-112420582D01*
X143830625Y-111929375D01*
X143339418Y-111601161D01*
X142906256Y-111515000D01*
X142613744Y-111515000D01*
X142180582Y-111601161D01*
X141689375Y-111929375D01*
X141490000Y-112227761D01*
X141290625Y-111929375D01*
X140799418Y-111601161D01*
X140366256Y-111515000D01*
X140073744Y-111515000D01*
X139640582Y-111601161D01*
X139149375Y-111929375D01*
X138950000Y-112227761D01*
X138750625Y-111929375D01*
X138259418Y-111601161D01*
X137826256Y-111515000D01*
X137533744Y-111515000D01*
X137100582Y-111601161D01*
X136609375Y-111929375D01*
X136410000Y-112227761D01*
X136210625Y-111929375D01*
X135719418Y-111601161D01*
X135286256Y-111515000D01*
X134993744Y-111515000D01*
X134560582Y-111601161D01*
X134069375Y-111929375D01*
X133870000Y-112227761D01*
X133670625Y-111929375D01*
X133179418Y-111601161D01*
X132746256Y-111515000D01*
X132453744Y-111515000D01*
X132020582Y-111601161D01*
X131529375Y-111929375D01*
X131330000Y-112227761D01*
X131130625Y-111929375D01*
X130639418Y-111601161D01*
X130206256Y-111515000D01*
X129913744Y-111515000D01*
X129480582Y-111601161D01*
X128989375Y-111929375D01*
X128790000Y-112227761D01*
X128590625Y-111929375D01*
X128099418Y-111601161D01*
X127666256Y-111515000D01*
X127373744Y-111515000D01*
X126940582Y-111601161D01*
X126449375Y-111929375D01*
X126250000Y-112227761D01*
X126050625Y-111929375D01*
X125559418Y-111601161D01*
X125126256Y-111515000D01*
X124833744Y-111515000D01*
X124400582Y-111601161D01*
X123909375Y-111929375D01*
X123710000Y-112227761D01*
X123510625Y-111929375D01*
X123019418Y-111601161D01*
X122586256Y-111515000D01*
X122293744Y-111515000D01*
X121860582Y-111601161D01*
X121369375Y-111929375D01*
X121357184Y-111947619D01*
X121348157Y-111902235D01*
X121207809Y-111692191D01*
X120997765Y-111551843D01*
X120750000Y-111502560D01*
X119050000Y-111502560D01*
X118802235Y-111551843D01*
X118592191Y-111692191D01*
X118451843Y-111902235D01*
X118402560Y-112150000D01*
X101710000Y-112150000D01*
X101710000Y-107285750D01*
X118565000Y-107285750D01*
X118565000Y-108126310D01*
X118661673Y-108359699D01*
X118840302Y-108538327D01*
X119073691Y-108635000D01*
X119914250Y-108635000D01*
X120073000Y-108476250D01*
X120073000Y-107127000D01*
X120327000Y-107127000D01*
X120327000Y-108476250D01*
X120485750Y-108635000D01*
X121326309Y-108635000D01*
X121559698Y-108538327D01*
X121738327Y-108359699D01*
X121835000Y-108126310D01*
X121835000Y-107285750D01*
X121676250Y-107127000D01*
X120327000Y-107127000D01*
X120073000Y-107127000D01*
X118723750Y-107127000D01*
X118565000Y-107285750D01*
X101710000Y-107285750D01*
X101710000Y-105873690D01*
X118565000Y-105873690D01*
X118565000Y-106714250D01*
X118723750Y-106873000D01*
X120073000Y-106873000D01*
X120073000Y-105523750D01*
X120327000Y-105523750D01*
X120327000Y-106873000D01*
X121676250Y-106873000D01*
X121835000Y-106714250D01*
X121835000Y-106674778D01*
X122315000Y-106674778D01*
X122315000Y-107325222D01*
X122563914Y-107926153D01*
X123023847Y-108386086D01*
X123624778Y-108635000D01*
X124275222Y-108635000D01*
X124876153Y-108386086D01*
X125336086Y-107926153D01*
X125585000Y-107325222D01*
X125585000Y-106674778D01*
X126065000Y-106674778D01*
X126065000Y-107325222D01*
X126313914Y-107926153D01*
X126773847Y-108386086D01*
X127374778Y-108635000D01*
X128025222Y-108635000D01*
X128626153Y-108386086D01*
X129086086Y-107926153D01*
X129335000Y-107325222D01*
X129335000Y-106674778D01*
X129086086Y-106073847D01*
X129012239Y-106000000D01*
X135552560Y-106000000D01*
X135552560Y-108000000D01*
X135601843Y-108247765D01*
X135742191Y-108457809D01*
X135952235Y-108598157D01*
X136200000Y-108647440D01*
X138200000Y-108647440D01*
X138447765Y-108598157D01*
X138657809Y-108457809D01*
X138798157Y-108247765D01*
X138847440Y-108000000D01*
X138847440Y-106674778D01*
X139315000Y-106674778D01*
X139315000Y-107325222D01*
X139563914Y-107926153D01*
X140023847Y-108386086D01*
X140624778Y-108635000D01*
X141275222Y-108635000D01*
X141876153Y-108386086D01*
X142336086Y-107926153D01*
X142585000Y-107325222D01*
X142585000Y-106674778D01*
X143065000Y-106674778D01*
X143065000Y-107325222D01*
X143313914Y-107926153D01*
X143773847Y-108386086D01*
X144374778Y-108635000D01*
X145025222Y-108635000D01*
X145626153Y-108386086D01*
X146086086Y-107926153D01*
X146335000Y-107325222D01*
X146335000Y-106674778D01*
X146086086Y-106073847D01*
X145626153Y-105613914D01*
X145025222Y-105365000D01*
X144374778Y-105365000D01*
X143773847Y-105613914D01*
X143313914Y-106073847D01*
X143065000Y-106674778D01*
X142585000Y-106674778D01*
X142336086Y-106073847D01*
X141876153Y-105613914D01*
X141275222Y-105365000D01*
X140624778Y-105365000D01*
X140023847Y-105613914D01*
X139563914Y-106073847D01*
X139315000Y-106674778D01*
X138847440Y-106674778D01*
X138847440Y-106000000D01*
X138798157Y-105752235D01*
X138657809Y-105542191D01*
X138447765Y-105401843D01*
X138200000Y-105352560D01*
X136200000Y-105352560D01*
X135952235Y-105401843D01*
X135742191Y-105542191D01*
X135601843Y-105752235D01*
X135552560Y-106000000D01*
X129012239Y-106000000D01*
X128626153Y-105613914D01*
X128025222Y-105365000D01*
X127374778Y-105365000D01*
X126773847Y-105613914D01*
X126313914Y-106073847D01*
X126065000Y-106674778D01*
X125585000Y-106674778D01*
X125336086Y-106073847D01*
X124876153Y-105613914D01*
X124275222Y-105365000D01*
X123624778Y-105365000D01*
X123023847Y-105613914D01*
X122563914Y-106073847D01*
X122315000Y-106674778D01*
X121835000Y-106674778D01*
X121835000Y-105873690D01*
X121738327Y-105640301D01*
X121559698Y-105461673D01*
X121326309Y-105365000D01*
X120485750Y-105365000D01*
X120327000Y-105523750D01*
X120073000Y-105523750D01*
X119914250Y-105365000D01*
X119073691Y-105365000D01*
X118840302Y-105461673D01*
X118661673Y-105640301D01*
X118565000Y-105873690D01*
X101710000Y-105873690D01*
X101710000Y-96775000D01*
X116702560Y-96775000D01*
X116702560Y-100575000D01*
X116751843Y-100822765D01*
X116892191Y-101032809D01*
X117102235Y-101173157D01*
X117350000Y-101222440D01*
X120150000Y-101222440D01*
X120397765Y-101173157D01*
X120607809Y-101032809D01*
X120748157Y-100822765D01*
X120797440Y-100575000D01*
X120797440Y-96775000D01*
X127102560Y-96775000D01*
X127102560Y-100575000D01*
X127151843Y-100822765D01*
X127292191Y-101032809D01*
X127502235Y-101173157D01*
X127750000Y-101222440D01*
X130550000Y-101222440D01*
X130797765Y-101173157D01*
X131007809Y-101032809D01*
X131148157Y-100822765D01*
X131197440Y-100575000D01*
X131197440Y-96775000D01*
X133702560Y-96775000D01*
X133702560Y-100575000D01*
X133751843Y-100822765D01*
X133892191Y-101032809D01*
X134102235Y-101173157D01*
X134350000Y-101222440D01*
X137150000Y-101222440D01*
X137397765Y-101173157D01*
X137607809Y-101032809D01*
X137748157Y-100822765D01*
X137797440Y-100575000D01*
X137797440Y-96775000D01*
X144102560Y-96775000D01*
X144102560Y-100575000D01*
X144151843Y-100822765D01*
X144292191Y-101032809D01*
X144502235Y-101173157D01*
X144750000Y-101222440D01*
X147550000Y-101222440D01*
X147797765Y-101173157D01*
X148007809Y-101032809D01*
X148148157Y-100822765D01*
X148197440Y-100575000D01*
X148197440Y-96775000D01*
X148148157Y-96527235D01*
X148007809Y-96317191D01*
X147797765Y-96176843D01*
X147550000Y-96127560D01*
X144750000Y-96127560D01*
X144502235Y-96176843D01*
X144292191Y-96317191D01*
X144151843Y-96527235D01*
X144102560Y-96775000D01*
X137797440Y-96775000D01*
X137748157Y-96527235D01*
X137607809Y-96317191D01*
X137397765Y-96176843D01*
X137150000Y-96127560D01*
X134350000Y-96127560D01*
X134102235Y-96176843D01*
X133892191Y-96317191D01*
X133751843Y-96527235D01*
X133702560Y-96775000D01*
X131197440Y-96775000D01*
X131148157Y-96527235D01*
X131007809Y-96317191D01*
X130797765Y-96176843D01*
X130550000Y-96127560D01*
X127750000Y-96127560D01*
X127502235Y-96176843D01*
X127292191Y-96317191D01*
X127151843Y-96527235D01*
X127102560Y-96775000D01*
X120797440Y-96775000D01*
X120748157Y-96527235D01*
X120607809Y-96317191D01*
X120397765Y-96176843D01*
X120150000Y-96127560D01*
X117350000Y-96127560D01*
X117102235Y-96176843D01*
X116892191Y-96317191D01*
X116751843Y-96527235D01*
X116702560Y-96775000D01*
X101710000Y-96775000D01*
X101710000Y-87285750D01*
X118565000Y-87285750D01*
X118565000Y-88126310D01*
X118661673Y-88359699D01*
X118840302Y-88538327D01*
X119073691Y-88635000D01*
X119914250Y-88635000D01*
X120073000Y-88476250D01*
X120073000Y-87127000D01*
X120327000Y-87127000D01*
X120327000Y-88476250D01*
X120485750Y-88635000D01*
X121326309Y-88635000D01*
X121559698Y-88538327D01*
X121738327Y-88359699D01*
X121835000Y-88126310D01*
X121835000Y-87285750D01*
X121676250Y-87127000D01*
X120327000Y-87127000D01*
X120073000Y-87127000D01*
X118723750Y-87127000D01*
X118565000Y-87285750D01*
X101710000Y-87285750D01*
X101710000Y-67364159D01*
X113570000Y-67364159D01*
X113570000Y-67970841D01*
X113802167Y-68531343D01*
X114231157Y-68960333D01*
X114791659Y-69192500D01*
X115398341Y-69192500D01*
X115958843Y-68960333D01*
X116387833Y-68531343D01*
X116620000Y-67970841D01*
X116620000Y-67364159D01*
X116387833Y-66803657D01*
X115958843Y-66374667D01*
X115398341Y-66142500D01*
X114791659Y-66142500D01*
X114231157Y-66374667D01*
X113802167Y-66803657D01*
X113570000Y-67364159D01*
X101710000Y-67364159D01*
X101710000Y-65710000D01*
X124085359Y-65710000D01*
X106038720Y-83756160D01*
M02*
